<svg width="17" height="17" viewBox="0 0 17 17" fill="none" xmlns="http://www.w3.org/2000/svg">
<path d="M13.2817 4.25V11.1562C13.2817 11.2971 13.2257 11.4323 13.1261 11.5319C13.0264 11.6315 12.8913 11.6875 12.7504 11.6875C12.6095 11.6875 12.4744 11.6315 12.3748 11.5319C12.2751 11.4323 12.2192 11.2971 12.2192 11.1562V5.5323L4.62628 13.1259C4.5266 13.2255 4.3914 13.2815 4.25042 13.2815C4.10945 13.2815 3.97425 13.2255 3.87456 13.1259C3.77488 13.0262 3.71888 12.891 3.71888 12.75C3.71888 12.609 3.77488 12.4738 3.87456 12.3741L11.4681 4.78125H5.84417C5.70327 4.78125 5.56815 4.72528 5.46852 4.62565C5.36889 4.52602 5.31292 4.3909 5.31292 4.25C5.31292 4.1091 5.36889 3.97398 5.46852 3.87435C5.56815 3.77472 5.70327 3.71875 5.84417 3.71875H12.7504C12.8913 3.71875 13.0264 3.77472 13.1261 3.87435C13.2257 3.97398 13.2817 4.1091 13.2817 4.25Z" fill="#0D0E14"/>
</svg>
