<svg width="44" height="44" viewBox="0 0 44 44" fill="none" xmlns="http://www.w3.org/2000/svg">
<mask id="mask0_0_224" style="mask-type:alpha" maskUnits="userSpaceOnUse" x="0" y="0" width="44" height="44">
<circle cx="22" cy="22" r="22" fill="#C4C4C4"/>
</mask>
<g mask="url(#mask0_0_224)">
<rect width="44" height="44" rx="21.4535" fill="#E6007A"/>
<g clip-path="url(#clip0_0_224)">
<path d="M22.1612 6.14022C15.4264 6.16684 9.97344 11.531 9.94639 18.1561C9.94639 19.4829 10.1641 20.8008 10.5905 22.0592C10.9087 22.9159 11.8529 23.3771 12.7392 23.1123C13.5959 22.7891 14.0506 21.8679 13.7775 21.0061C13.4155 20.0253 13.2545 18.9849 13.3022 17.9432C13.449 13.1582 17.5108 9.39575 22.3751 9.54021C27.2394 9.68468 31.0641 13.6803 30.9172 18.4653C30.7794 22.945 27.193 26.5832 22.6443 26.8557C22.6443 26.8557 20.9297 26.9583 20.0769 27.061C19.7626 27.1053 19.4508 27.1662 19.1429 27.2435C19.0991 27.2878 19.0283 27.2878 18.9832 27.2447L18.9819 27.2435C18.951 27.2042 18.951 27.1484 18.9819 27.1091L19.2473 25.6848L20.8576 18.5604C21.0508 17.6708 20.475 16.7951 19.5706 16.605C18.6663 16.415 17.7762 16.9814 17.5829 17.871C17.5829 17.871 13.7531 35.3094 13.7531 35.4678C13.5341 36.3156 14.0545 37.1773 14.9163 37.3927C14.9253 37.3953 14.9356 37.3978 14.9447 37.3991H15.0335C15.8941 37.6183 16.7726 37.1089 16.9942 36.2624C16.9981 36.2484 17.0019 36.2345 17.0045 36.2193C17.0019 36.1927 17.0019 36.1661 17.0045 36.1407C17.0522 35.9354 17.5353 33.6151 17.5353 33.6151C17.9011 31.8638 19.3362 30.5218 21.1319 30.2506C21.5017 30.1948 23.0552 30.0922 23.0552 30.0922C29.7643 29.4345 34.6608 23.5507 33.9909 16.951C33.3803 10.9316 28.3112 6.29736 22.1612 6.14022Z" fill="white"/>
<path d="M22.9018 33.8458C21.8004 33.6202 20.7234 34.3159 20.4941 35.3981C20.4915 35.4083 20.4902 35.4184 20.4877 35.4286C20.2493 36.5044 20.9424 37.5676 22.0374 37.8021C22.0387 37.8021 22.04 37.8021 22.0412 37.8034H22.0979C23.1697 38.0581 24.248 37.4092 24.5056 36.3562C24.5082 36.3486 24.5095 36.3397 24.512 36.3321V36.2218C24.7014 35.1346 23.9955 34.0916 22.9018 33.8458Z" fill="white"/>
</g>
</g>
<defs>
<clipPath id="clip0_0_224">
<rect width="23.8434" height="31.3728" fill="white" transform="translate(9.94639 6.14022) scale(1.01103)"/>
</clipPath>
</defs>
</svg>
