<svg width="19" height="19" viewBox="0 0 19 19" fill="none" xmlns="http://www.w3.org/2000/svg">
<path d="M16.8171 3.58132H2.92565C2.59072 3.58132 2.26951 3.71437 2.03267 3.9512C1.79584 4.18804 1.66279 4.50925 1.66279 4.84418V16.2099C1.66279 16.5449 1.79584 16.8661 2.03267 17.1029C2.26951 17.3397 2.59072 17.4728 2.92565 17.4728H16.8171C17.1521 17.4728 17.4733 17.3397 17.7101 17.1029C17.9469 16.8661 18.08 16.5449 18.08 16.2099V4.84418C18.08 4.50925 17.9469 4.18804 17.7101 3.9512C17.4733 3.71437 17.1521 3.58132 16.8171 3.58132ZM16.8171 16.2099H2.92565V4.84418H16.8171V16.2099ZM6.0828 7.05419C6.0828 7.24151 6.02726 7.42464 5.92318 7.58039C5.81911 7.73615 5.67118 7.85755 5.49812 7.92924C5.32505 8.00092 5.13461 8.01968 4.95088 7.98313C4.76715 7.94659 4.59839 7.85638 4.46593 7.72392C4.33346 7.59146 4.24326 7.42269 4.20671 7.23897C4.17017 7.05524 4.18892 6.8648 4.26061 6.69173C4.3323 6.51866 4.4537 6.37074 4.60945 6.26666C4.76521 6.16259 4.94833 6.10704 5.13566 6.10704C5.38686 6.10704 5.62777 6.20683 5.80539 6.38445C5.98302 6.56208 6.0828 6.80299 6.0828 7.05419ZM9.23996 7.05419C9.23996 7.24151 9.18441 7.42464 9.08033 7.58039C8.97626 7.73615 8.82834 7.85755 8.65527 7.92924C8.4822 8.00092 8.29176 8.01968 8.10803 7.98313C7.9243 7.94659 7.75554 7.85638 7.62308 7.72392C7.49062 7.59146 7.40041 7.42269 7.36386 7.23897C7.32732 7.05524 7.34607 6.8648 7.41776 6.69173C7.48945 6.51866 7.61085 6.37074 7.7666 6.26666C7.92236 6.16259 8.10548 6.10704 8.29281 6.10704C8.54401 6.10704 8.78492 6.20683 8.96254 6.38445C9.14017 6.56208 9.23996 6.80299 9.23996 7.05419Z" fill="#4D4F5C"/>
</svg>
