<svg width="19" height="19" viewBox="0 0 19 19" fill="none" xmlns="http://www.w3.org/2000/svg">
<path d="M16.7218 2.27255H2.83038C2.49545 2.27255 2.17423 2.4056 1.9374 2.64243C1.70057 2.87926 1.56752 3.20048 1.56752 3.53541V14.2697C1.56752 14.6047 1.70057 14.9259 1.9374 15.1627C2.17423 15.3995 2.49545 15.5326 2.83038 15.5326H4.09324V16.7954C4.09324 16.9629 4.15976 17.1235 4.27818 17.2419C4.3966 17.3604 4.5572 17.4269 4.72467 17.4269C4.89213 17.4269 5.05274 17.3604 5.17116 17.2419C5.28957 17.1235 5.3561 16.9629 5.3561 16.7954V15.5326H14.1961V16.7954C14.1961 16.9629 14.2626 17.1235 14.3811 17.2419C14.4995 17.3604 14.6601 17.4269 14.8276 17.4269C14.995 17.4269 15.1556 17.3604 15.274 17.2419C15.3925 17.1235 15.459 16.9629 15.459 16.7954V15.5326H16.7218C17.0568 15.5326 17.378 15.3995 17.6148 15.1627C17.8517 14.9259 17.9847 14.6047 17.9847 14.2697V3.53541C17.9847 3.20048 17.8517 2.87926 17.6148 2.64243C17.378 2.4056 17.0568 2.27255 16.7218 2.27255ZM16.7218 14.2697H2.83038V3.53541H16.7218V8.58685H15.4053C15.247 7.65019 14.7426 6.80718 13.992 6.2249C13.2414 5.64261 12.2995 5.36353 11.3529 5.44297C10.4063 5.52241 9.52404 5.95457 8.88102 6.65381C8.23801 7.35305 7.88114 8.26833 7.88114 9.21828C7.88114 10.1682 8.23801 11.0835 8.88102 11.7828C9.52404 12.482 10.4063 12.9142 11.3529 12.9936C12.2995 13.073 13.2414 12.794 13.992 12.2117C14.7426 11.6294 15.247 10.7864 15.4053 9.84971H16.7218V14.2697ZM12.7628 8.58685C12.6238 8.3461 12.4092 8.15794 12.1524 8.05155C11.8955 7.94517 11.6108 7.9265 11.3423 7.99845C11.0737 8.0704 10.8364 8.22895 10.6672 8.4495C10.498 8.67005 10.4062 8.94028 10.4062 9.21828C10.4062 9.49628 10.498 9.76651 10.6672 9.98706C10.8364 10.2076 11.0737 10.3662 11.3423 10.4381C11.6108 10.5101 11.8955 10.4914 12.1524 10.385C12.4092 10.2786 12.6238 10.0905 12.7628 9.84971H14.1172C13.9635 10.4449 13.598 10.9637 13.0892 11.3087C12.5804 11.6537 11.9633 11.8013 11.3534 11.7239C10.7436 11.6464 10.1829 11.3492 9.77654 10.8879C9.37016 10.4267 9.14595 9.83303 9.14595 9.21828C9.14595 8.60354 9.37016 8.0099 9.77654 7.54863C10.1829 7.08737 10.7436 6.79015 11.3534 6.71269C11.9633 6.63523 12.5804 6.78285 13.0892 7.12787C13.598 7.47289 13.9635 7.99163 14.1172 8.58685H12.7628Z" fill="#4D4F5C"/>
</svg>
