<svg width="19" height="19" viewBox="0 0 19 19" fill="none" xmlns="http://www.w3.org/2000/svg">
<path d="M15.8579 7.54508L9.92041 13.4826C9.86526 13.5378 9.79978 13.5816 9.7277 13.6115C9.65562 13.6413 9.57836 13.6567 9.50033 13.6567C9.4223 13.6567 9.34504 13.6413 9.27296 13.6115C9.20088 13.5816 9.1354 13.5378 9.08025 13.4826L3.14275 7.54508C3.03134 7.43367 2.96875 7.28256 2.96875 7.125C2.96875 6.96744 3.03134 6.81634 3.14275 6.70492C3.25416 6.59351 3.40527 6.53092 3.56283 6.53092C3.72039 6.53092 3.8715 6.59351 3.98291 6.70492L9.50033 12.2231L15.0178 6.70492C15.0729 6.64976 15.1384 6.606 15.2105 6.57614C15.2826 6.54629 15.3598 6.53092 15.4378 6.53092C15.5158 6.53092 15.5931 6.54629 15.6652 6.57614C15.7373 6.606 15.8027 6.64976 15.8579 6.70492C15.9131 6.76009 15.9568 6.82558 15.9867 6.89766C16.0165 6.96973 16.0319 7.04699 16.0319 7.125C16.0319 7.20302 16.0165 7.28027 15.9867 7.35235C15.9568 7.42442 15.9131 7.48991 15.8579 7.54508Z" fill="white"/>
</svg>
