<svg width="23" height="23" viewBox="0 0 23 23" fill="none" xmlns="http://www.w3.org/2000/svg">
<path d="M20.6339 6.9773L9.13392 18.4773C9.06716 18.5441 8.98789 18.5971 8.90064 18.6333C8.81338 18.6695 8.71985 18.6881 8.6254 18.6881C8.53094 18.6881 8.43742 18.6695 8.35016 18.6333C8.26291 18.5971 8.18364 18.5441 8.11688 18.4773L3.08563 13.446C2.95077 13.3112 2.875 13.1283 2.875 12.9375C2.875 12.7468 2.95077 12.5639 3.08563 12.429C3.2205 12.2942 3.40342 12.2184 3.59415 12.2184C3.78488 12.2184 3.9678 12.2942 4.10267 12.429L8.6254 16.9527L19.6169 5.96027C19.7518 5.8254 19.9347 5.74963 20.1254 5.74963C20.3161 5.74963 20.4991 5.8254 20.6339 5.96027C20.7688 6.09513 20.8446 6.27805 20.8446 6.46878C20.8446 6.65951 20.7688 6.84243 20.6339 6.9773Z" fill="#0D0E14"/>
</svg>
