<svg width="18" height="18" viewBox="0 0 18 18" fill="none" xmlns="http://www.w3.org/2000/svg">
<path d="M13.2191 3.37502C12.9271 3.37461 12.6388 3.43972 12.3753 3.56557V3.09377C12.3755 2.62454 12.2081 2.17067 11.9032 1.81396C11.5984 1.45725 11.1762 1.22115 10.7126 1.14821C10.2491 1.07526 9.77477 1.17027 9.3751 1.41612C8.97543 1.66196 8.67671 2.04247 8.53276 2.48908C8.23295 2.32646 7.89604 2.24452 7.55503 2.25129C7.21403 2.25806 6.88063 2.3533 6.5875 2.52768C6.29438 2.70207 6.05159 2.94961 5.88292 3.24606C5.71425 3.54251 5.6255 3.8777 5.62534 4.21877V8.71877L5.35675 8.28775C5.09586 7.83754 4.66735 7.50891 4.16488 7.3737C3.66241 7.2385 3.12685 7.30771 2.67526 7.56621C2.22368 7.82472 1.89279 8.25148 1.75493 8.75323C1.61707 9.25498 1.68345 9.7909 1.93956 10.2438C3.06456 12.6183 3.9737 14.3023 5.01362 15.3549C6.06409 16.4208 7.25659 16.875 9.00034 16.875C10.6408 16.8732 12.2135 16.2207 13.3735 15.0607C14.5335 13.9007 15.186 12.328 15.1878 10.6875V5.34377C15.1878 4.82162 14.9804 4.32086 14.6112 3.95165C14.242 3.58244 13.7412 3.37502 13.2191 3.37502ZM14.0628 10.6875C14.0614 12.0297 13.5275 13.3165 12.5784 14.2656C11.6293 15.2147 10.3425 15.7485 9.00034 15.75C7.56737 15.75 6.64417 15.4069 5.81308 14.5653C4.88284 13.6224 4.02644 12.0235 2.94644 9.74393C2.94011 9.72998 2.93307 9.71637 2.92534 9.70314C2.81345 9.5093 2.78315 9.27894 2.84111 9.06276C2.89906 8.84657 3.04052 8.66226 3.23437 8.55037C3.42821 8.43848 3.65857 8.40818 3.87475 8.46614C4.09094 8.52409 4.27525 8.66555 4.38714 8.85939C4.39 8.86503 4.39329 8.87043 4.39698 8.87557L5.70972 10.9849C5.77421 11.089 5.87088 11.1692 5.98506 11.2133C6.09925 11.2574 6.22472 11.2631 6.34242 11.2295C6.46013 11.1958 6.56364 11.1247 6.63726 11.0269C6.71088 10.9291 6.75058 10.8099 6.75034 10.6875V4.21877C6.75034 3.99499 6.83924 3.78038 6.99747 3.62215C7.15571 3.46391 7.37032 3.37502 7.59409 3.37502C7.81787 3.37502 8.03248 3.46391 8.19071 3.62215C8.34895 3.78038 8.43784 3.99499 8.43784 4.21877V8.43752C8.43784 8.5867 8.49711 8.72978 8.6026 8.83527C8.70809 8.94076 8.85116 9.00002 9.00034 9.00002C9.14953 9.00002 9.2926 8.94076 9.39809 8.83527C9.50358 8.72978 9.56284 8.5867 9.56284 8.43752V3.09377C9.56284 2.86999 9.65174 2.65538 9.80997 2.49715C9.96821 2.33891 10.1828 2.25002 10.4066 2.25002C10.6304 2.25002 10.845 2.33891 11.0032 2.49715C11.1614 2.65538 11.2503 2.86999 11.2503 3.09377V8.43752C11.2503 8.5867 11.3096 8.72978 11.4151 8.83527C11.5206 8.94076 11.6637 9.00002 11.8128 9.00002C11.962 9.00002 12.1051 8.94076 12.2106 8.83527C12.3161 8.72978 12.3753 8.5867 12.3753 8.43752V5.34377C12.3753 5.11999 12.4642 4.90538 12.6225 4.74715C12.7807 4.58891 12.9953 4.50002 13.2191 4.50002C13.4429 4.50002 13.6575 4.58891 13.8157 4.74715C13.9739 4.90538 14.0628 5.11999 14.0628 5.34377V10.6875Z" fill="#4D4F5C"/>
</svg>
