<svg width="19" height="19" viewBox="0 0 19 19" fill="none" xmlns="http://www.w3.org/2000/svg">
<path d="M16.6249 3.56252H2.37488C2.21741 3.56252 2.06639 3.62507 1.95504 3.73642C1.84369 3.84777 1.78113 3.99879 1.78113 4.15627V14.25C1.78113 14.565 1.90624 14.867 2.12894 15.0897C2.35164 15.3124 2.65369 15.4375 2.96863 15.4375H16.0312C16.3461 15.4375 16.6481 15.3124 16.8708 15.0897C17.0935 14.867 17.2187 14.565 17.2187 14.25V4.15627C17.2187 3.99879 17.1561 3.84777 17.0448 3.73642C16.9334 3.62507 16.7824 3.56252 16.6249 3.56252ZM15.0982 4.75002L9.49989 9.88225L3.90157 4.75002H15.0982ZM16.0312 14.25H2.96863V5.50631L9.09837 11.1254C9.20791 11.226 9.3512 11.2818 9.49989 11.2818C9.64859 11.2818 9.79188 11.226 9.90142 11.1254L16.0312 5.50631V14.25Z" fill="#0D0E14"/>
</svg>
