<svg width="22" height="22" viewBox="0 0 22 22" fill="none" xmlns="http://www.w3.org/2000/svg">
<g clip-path="url(#clip0_0_100)">
<path d="M21.8559 6.39332C21.8559 4.45973 20.4336 2.90426 18.6762 2.90426C16.2957 2.79297 13.868 2.75 11.387 2.75H10.6135C8.13854 2.75 5.70651 2.79297 3.32604 2.90469C1.57292 2.90469 0.150652 4.46875 0.150652 6.40234C0.0432301 7.9316 -0.00231683 9.46129 0.000261296 10.991C-0.00403558 12.5207 0.0446624 14.0518 0.146355 15.5843C0.146355 17.5179 1.56862 19.0863 3.32175 19.0863C5.82253 19.2023 8.38776 19.2539 10.996 19.2496C13.6085 19.2582 16.1665 19.2037 18.6702 19.0863C20.4276 19.0863 21.8499 17.5179 21.8499 15.5843C21.953 14.0504 22.0003 12.5207 21.996 10.9867C22.0057 9.45699 21.959 7.92587 21.8559 6.39332ZM8.89479 15.2062V6.76285L15.1253 10.9824L8.89479 15.2062Z" fill="#212333"/>
</g>
<defs>
<clipPath id="clip0_0_100">
<rect width="22" height="22" fill="white"/>
</clipPath>
</defs>
</svg>
