<svg width="155" height="40" viewBox="0 0 155 40" fill="none" xmlns="http://www.w3.org/2000/svg">
<g clip-path="url(#clip0_0_322)">
<path d="M51.5821 10.2839H48V26.4472H57.9164V23.2801H51.5821V10.2839Z" fill="#7A7B85"/>
<path d="M58.2588 20.9648C58.2588 24.4159 60.5741 26.7093 64.0688 26.7093C67.5417 26.7093 69.857 24.4159 69.857 20.9648C69.857 17.5137 67.5417 15.1984 64.0688 15.1984C60.5741 15.1984 58.2588 17.5137 58.2588 20.9648ZM61.6443 20.9429C61.6443 19.3048 62.6054 18.2127 64.0688 18.2127C65.5104 18.2127 66.4715 19.3048 66.4715 20.9429C66.4715 22.603 65.5104 23.6951 64.0688 23.6951C62.6054 23.6951 61.6443 22.603 61.6443 20.9429Z" fill="#7A7B85"/>
<path d="M70.3982 20.7901C70.3982 24.0882 72.5388 26.3161 75.5748 26.3161C77.0383 26.3161 78.3051 25.7919 78.9385 24.9401V26.4472C78.9385 27.9543 77.9993 28.959 76.3393 28.959C74.854 28.959 73.8274 28.2601 73.7619 27.0151H70.3545C70.6603 30.0075 72.9756 32.0169 76.1427 32.0169C79.8777 32.0169 82.2367 29.5925 82.2367 25.7482V15.5261H79.2006L79.0259 16.64C78.4143 15.7445 77.1256 15.1548 75.6404 15.1548C72.5824 15.1548 70.3982 17.4482 70.3982 20.7901ZM73.8056 20.7027C73.8056 19.13 74.854 18.0816 76.1864 18.0816C77.7372 18.0816 78.873 19.1082 78.873 20.7027C78.873 22.2972 77.759 23.3893 76.2082 23.3893C74.8759 23.3893 73.8056 22.2972 73.8056 20.7027Z" fill="#7A7B85"/>
<path d="M83.2168 20.9648C83.2168 24.4159 85.5321 26.7093 89.0269 26.7093C92.4998 26.7093 94.815 24.4159 94.815 20.9648C94.815 17.5137 92.4998 15.1984 89.0269 15.1984C85.5321 15.1984 83.2168 17.5137 83.2168 20.9648ZM86.6024 20.9429C86.6024 19.3048 87.5634 18.2127 89.0269 18.2127C90.4684 18.2127 91.4295 19.3048 91.4295 20.9429C91.4295 22.603 90.4684 23.6951 89.0269 23.6951C87.5634 23.6951 86.6024 22.603 86.6024 20.9429Z" fill="#7A7B85"/>
<path d="M97.7151 13.8224C98.7635 13.8224 99.6154 12.9705 99.6154 11.9003C99.6154 10.83 98.7635 10 97.7151 10C96.6448 10 95.793 10.83 95.793 11.9003C95.793 12.9705 96.6448 13.8224 97.7151 13.8224ZM96.0114 26.4472H99.397V15.5261H96.0114V26.4472Z" fill="#7A7B85"/>
<path d="M101.368 31.6893H104.688V25.3551C105.321 26.1851 106.763 26.753 108.27 26.753C111.524 26.753 113.49 24.263 113.403 20.8119C113.315 17.2953 111.284 15.1766 108.248 15.1766C106.697 15.1766 105.234 15.8537 104.622 16.8585L104.447 15.5261H101.368V31.6893ZM104.753 20.9866C104.753 19.3485 105.845 18.2564 107.418 18.2564C109.012 18.2564 110.017 19.3703 110.017 20.9866C110.017 22.603 109.012 23.7169 107.418 23.7169C105.845 23.7169 104.753 22.6248 104.753 20.9866Z" fill="#7A7B85"/>
<path d="M113.761 22.9961C113.848 25.2022 115.596 26.7311 118.348 26.7311C120.991 26.7311 122.826 25.3332 122.826 23.0835C122.826 21.4672 121.865 20.3969 120.073 19.96L118.13 19.4795C117.431 19.3048 116.994 19.13 116.994 18.5621C116.994 17.9942 117.452 17.6229 118.13 17.6229C118.894 17.6229 119.396 18.1253 119.375 18.8679H122.411C122.323 16.5963 120.598 15.1766 118.195 15.1766C115.771 15.1766 113.958 16.6182 113.958 18.8024C113.958 20.2658 114.766 21.4672 116.928 22.0351L118.85 22.5374C119.418 22.6903 119.658 22.9524 119.658 23.3237C119.658 23.8698 119.156 24.2193 118.304 24.2193C117.321 24.2193 116.797 23.7606 116.797 22.9961H113.761Z" fill="#7A7B85"/>
<path d="M127.974 26.7311C129.307 26.7311 130.639 26.1195 131.316 25.224L131.535 26.4472H134.702V15.5261H131.338V21.2051C131.338 22.8432 130.858 23.7387 129.307 23.7387C128.105 23.7387 127.319 23.1927 127.319 21.1614V15.5261H123.955V22.3845C123.955 24.9838 125.397 26.7311 127.974 26.7311Z" fill="#7A7B85"/>
<path d="M140.036 26.4472V20.4843C140.036 18.6495 141.019 18.1253 141.98 18.1253C143.05 18.1253 143.749 18.7806 143.749 20.1348V26.4472H147.069V20.4843C147.069 18.6277 148.03 18.1035 148.991 18.1035C150.061 18.1035 150.782 18.7587 150.782 20.1348V26.4472H154.059V19.3048C154.059 16.8148 152.748 15.1548 149.93 15.1548C148.358 15.1548 147.069 15.9192 146.501 17.0987C145.846 15.9192 144.71 15.1548 142.897 15.1548C141.696 15.1548 140.582 15.7008 139.927 16.5745L139.796 15.5261H136.65V26.4472H140.036Z" fill="#7A7B85"/>
<path d="M0 20C0 10.5719 0 5.85786 2.92893 2.92893C5.85786 0 10.5719 0 20 0C29.4281 0 34.1421 0 37.0711 2.92893C40 5.85786 40 10.5719 40 20C40 29.4281 40 34.1421 37.0711 37.0711C34.1421 40 29.4281 40 20 40C10.5719 40 5.85786 40 2.92893 37.0711C0 34.1421 0 29.4281 0 20Z" fill="#7A7B85"/>
<path d="M23.9997 26C24.552 26 25.0098 26.4521 24.9001 26.9934C24.7062 27.9494 24.2352 28.8355 23.5352 29.5355C22.5976 30.4732 21.3258 31 19.9997 31C18.6736 31 17.4019 30.4732 16.4642 29.5355C15.7642 28.8355 15.2932 27.9494 15.0994 26.9934C14.9896 26.4521 15.4474 26 15.9997 26H23.9997Z" fill="#07070A"/>
<path d="M26.1027 17.7765C25.5692 17.9194 25.2425 18.4775 25.513 18.959C25.7977 19.4658 26.1915 19.9081 26.6706 20.2514C27.4228 20.7904 28.3386 21.052 29.2621 20.9914C30.1855 20.9309 31.0594 20.5521 31.7348 19.9195C32.4103 19.2869 32.8454 18.4396 32.9662 17.5221C33.087 16.6046 32.886 15.6736 32.3973 14.8877C31.9086 14.1019 31.1625 13.5098 30.2862 13.2123C29.4099 12.9148 28.4576 12.9304 27.5915 13.2564C27.0399 13.464 26.5451 13.7893 26.1389 14.2051C25.753 14.6002 25.9241 15.2239 26.4024 15.5L26.9097 15.7929C27.6812 16.2384 27.5291 17.3943 26.6685 17.6249L26.1027 17.7765Z" fill="#07070A"/>
<path d="M13.8977 17.7765C14.4312 17.9194 14.7579 18.4775 14.4874 18.959C14.2027 19.4658 13.8089 19.9081 13.3299 20.2514C12.5777 20.7904 11.6618 21.052 10.7384 20.9914C9.81496 20.9309 8.94107 20.5521 8.26564 19.9195C7.59021 19.2869 7.15502 18.4396 7.03423 17.5221C6.91344 16.6046 7.11451 15.6736 7.6032 14.8877C8.09188 14.1019 8.83794 13.5098 9.71425 13.2123C10.5905 12.9148 11.5429 12.9304 12.409 13.2564C12.9605 13.464 13.4554 13.7893 13.8616 14.2051C14.2475 14.6002 14.0763 15.2239 13.598 15.5L13.0907 15.7929C12.3192 16.2384 12.4714 17.3943 13.3319 17.6249L13.8977 17.7765Z" fill="#07070A"/>
</g>
<defs>
<clipPath id="clip0_0_322">
<rect width="155" height="40" fill="white"/>
</clipPath>
</defs>
</svg>
