<svg width="186" height="41" viewBox="0 0 186 41" fill="none" xmlns="http://www.w3.org/2000/svg">
<g clip-path="url(#clip0_0_285)">
<path fill-rule="evenodd" clip-rule="evenodd" d="M59.0371 2.72867C59.0371 1.33928 60.1757 0.212952 61.5804 0.212952H66.011C67.0107 0.212952 67.9796 0.555651 68.7526 1.18271L70.1004 2.27599L70.1341 2.3064C70.1652 2.29602 70.1963 2.28588 70.2275 2.27599C72.6591 1.5056 75.6093 1.35909 78.6204 1.35909C81.6315 1.35909 84.5817 1.5056 87.0133 2.27599C87.0445 2.28588 87.0756 2.29602 87.1067 2.3064L87.1404 2.27599L88.4882 1.18271C89.2612 0.555651 90.2301 0.212952 91.2298 0.212952H95.6604C97.0651 0.212952 98.2037 1.33928 98.2037 2.72867V4.28385C98.2037 5.4871 97.6913 6.63469 96.7921 7.44509L95.7048 8.42508C95.174 8.9035 94.5369 9.25168 93.8449 9.4415L93.5877 9.51206C94.5952 11.89 95.1518 14.4318 95.1518 16.488C95.1518 24.7594 89.9779 28.3317 85.4191 31.4793C81.829 33.9581 78.6204 36.1734 78.6204 40.213C78.6204 36.1734 75.4118 33.9581 71.8217 31.4793C67.2629 28.3317 62.089 24.7594 62.089 16.488C62.089 14.4318 62.6456 11.89 63.6531 9.51206L63.3959 9.4415C62.7039 9.25168 62.0668 8.9035 61.536 8.42508L60.4487 7.44509C59.5495 6.63469 59.0371 5.4871 59.0371 4.28385V2.72867ZM81.9267 23.2502C81.9267 23.6454 81.7525 24.0243 81.4425 24.3038C81.1325 24.5832 80.712 24.7402 80.2735 24.7402C79.895 24.7402 79.5298 24.6231 79.2376 24.4113C79.735 25.7283 81.0079 26.9762 82.944 24.9694C84.6532 23.1047 82.868 19.1718 81.1288 16.838C80.5491 16.0601 79.5974 15.6857 78.6204 15.6857C77.6434 15.6857 76.6917 16.0601 76.112 16.838C74.3728 19.1718 72.5876 23.1047 74.2968 24.9694C76.2329 26.9762 77.5058 25.7283 78.0032 24.4113C77.711 24.6231 77.3458 24.7402 76.9673 24.7402C76.5288 24.7402 76.1083 24.5832 75.7983 24.3038C75.4883 24.0243 75.3141 23.6454 75.3141 23.2502H81.9267ZM72.2897 11.6081H67.6843L71.3138 14.4828C72.1125 15.1153 73.2799 14.9131 73.7741 14.0566C74.3981 12.9752 73.5693 11.6081 72.2897 11.6081ZM84.9511 11.6081H89.5565L85.927 14.4828C85.1283 15.1153 83.9609 14.9131 83.4667 14.0566C82.8427 12.9752 83.6715 11.6081 84.9511 11.6081Z" fill="#7A7B85"/>
<path d="M103.69 28.5463H107.77V13.1563H103.69V28.5463ZM103.69 10.7563H107.77V7.09631H103.69V10.7563Z" fill="#7A7B85"/>
<path d="M110.399 33.5863H114.479V26.8063H114.539C115.409 28.1263 116.819 28.9963 118.979 28.9963C122.939 28.9963 125.639 25.8463 125.639 20.8663C125.639 16.0663 123.029 12.7363 118.949 12.7363C116.849 12.7363 115.409 13.7263 114.419 15.0763H114.329V13.1563H110.399V33.5863ZM118.109 25.6063C115.679 25.6063 114.389 23.7763 114.389 20.9863C114.389 18.2263 115.409 16.0363 117.959 16.0363C120.479 16.0363 121.499 18.0763 121.499 20.9863C121.499 23.8963 120.179 25.6063 118.109 25.6063Z" fill="#7A7B85"/>
<path d="M133.778 28.9963C137.618 28.9963 140.258 27.1363 140.258 24.0463C140.258 20.4463 137.408 19.7263 134.828 19.1863C132.638 18.7363 130.598 18.6163 130.598 17.2963C130.598 16.1863 131.648 15.5863 133.238 15.5863C134.978 15.5863 136.028 16.1863 136.208 17.8363H139.898C139.598 14.7463 137.348 12.7363 133.298 12.7363C129.788 12.7363 127.028 14.3263 127.028 17.6563C127.028 21.0163 129.728 21.7663 132.488 22.3063C134.588 22.7263 136.538 22.8763 136.538 24.3463C136.538 25.4263 135.518 26.1163 133.718 26.1163C131.888 26.1163 130.628 25.3363 130.358 23.5663H126.578C126.818 26.8363 129.308 28.9963 133.778 28.9963Z" fill="#7A7B85"/>
<path d="M155.749 28.5463V13.1563H151.669V22.0363C151.669 24.0763 150.499 25.5163 148.579 25.5163C146.839 25.5163 146.029 24.5263 146.029 22.7263V13.1563H141.979V23.4163C141.979 26.7763 143.899 28.9663 147.319 28.9663C149.479 28.9663 150.679 28.1563 151.729 26.7463H151.819V28.5463H155.749Z" fill="#7A7B85"/>
<path d="M158.388 28.5463H162.468V19.6063C162.468 17.5663 163.578 16.2463 165.228 16.2463C166.728 16.2463 167.598 17.1463 167.598 18.8863V28.5463H171.678V19.6063C171.678 17.5663 172.728 16.2463 174.438 16.2463C175.938 16.2463 176.808 17.1463 176.808 18.8863V28.5463H180.888V18.1963C180.888 14.8363 179.058 12.7363 175.818 12.7363C173.868 12.7363 172.248 13.7563 171.198 15.4363H171.138C170.388 13.8163 168.828 12.7363 166.878 12.7363C164.748 12.7363 163.248 13.8163 162.408 15.2263H162.318V13.1563H158.388V28.5463Z" fill="#7A7B85"/>
<path d="M0.683594 28.5463H4.76359V7.09631H0.683594V28.5463Z" fill="#7A7B85"/>
<path d="M14.7402 28.9963C19.5102 28.9963 22.7802 25.4563 22.7802 20.8663C22.7802 16.2763 19.5102 12.7363 14.7402 12.7363C9.9702 12.7363 6.7002 16.2763 6.7002 20.8663C6.7002 25.4563 9.9702 28.9963 14.7402 28.9963ZM14.7402 25.8763C12.2202 25.8763 10.8402 23.8663 10.8402 20.8663C10.8402 17.8663 12.2202 15.8263 14.7402 15.8263C17.2302 15.8263 18.6402 17.8663 18.6402 20.8663C18.6402 23.8663 17.2302 25.8763 14.7402 25.8763Z" fill="#7A7B85"/>
<path d="M31.4568 33.7963C33.7368 33.7963 35.7168 33.2563 37.0068 32.0563C38.1468 31.0063 38.8368 29.5363 38.8368 27.3763V13.1563H34.9068V14.7763H34.8468C33.9168 13.4863 32.5068 12.7363 30.5868 12.7363C26.6868 12.7363 23.9268 15.6763 23.9268 20.2663C23.9268 24.9163 27.2868 27.6163 30.7068 27.6163C32.6568 27.6163 33.8268 26.8363 34.7268 25.8163H34.8168V27.4963C34.8168 29.5963 33.7068 30.7063 31.3968 30.7063C29.5068 30.7063 28.6368 29.9563 28.3068 28.9963H24.2568C24.6768 31.9963 27.2568 33.7963 31.4568 33.7963ZM31.3968 24.3463C29.2968 24.3463 27.9168 22.8163 27.9168 20.2063C27.9168 17.6263 29.2968 16.0063 31.3668 16.0063C33.8268 16.0063 35.0268 17.9263 35.0268 20.1763C35.0268 22.4563 33.9768 24.3463 31.3968 24.3463Z" fill="#7A7B85"/>
<path d="M48.7539 28.9963C53.5239 28.9963 56.7939 25.4563 56.7939 20.8663C56.7939 16.2763 53.5239 12.7363 48.7539 12.7363C43.9839 12.7363 40.7139 16.2763 40.7139 20.8663C40.7139 25.4563 43.9839 28.9963 48.7539 28.9963ZM48.7539 25.8763C46.2339 25.8763 44.8539 23.8663 44.8539 20.8663C44.8539 17.8663 46.2339 15.8263 48.7539 15.8263C51.2439 15.8263 52.6539 17.8663 52.6539 20.8663C52.6539 23.8663 51.2439 25.8763 48.7539 25.8763Z" fill="#7A7B85"/>
<path d="M180.704 9.79626C180.704 9.1059 181.263 8.54626 181.954 8.54626H184.454C185.144 8.54626 185.704 9.1059 185.704 9.79626C185.704 10.4866 185.144 11.0463 184.454 11.0463H181.954C181.263 11.0463 180.704 10.4866 180.704 9.79626Z" fill="#7A7B85"/>
</g>
<defs>
<clipPath id="clip0_0_285">
<rect width="186" height="41" fill="white"/>
</clipPath>
</defs>
</svg>
