<svg width="161" height="36" viewBox="0 0 161 36" fill="none" xmlns="http://www.w3.org/2000/svg">
<rect width="44.6953" height="35.4353" rx="5" fill="#96EA63"/>
<path d="M30.8837 8.02756C30.8837 9.11676 30.7335 10.1308 30.4705 11.1074C30.1701 12.0839 29.7945 12.9853 29.3062 13.8116C28.818 14.6379 28.217 15.389 27.5034 16.0275C26.7898 16.7036 26.0386 17.2294 25.2124 17.7176C26.0386 18.1684 26.8274 18.7317 27.5034 19.3702C28.217 20.0087 28.818 20.7599 29.3062 21.5862C29.7945 22.4125 30.2076 23.3139 30.4705 24.2528C30.771 25.2294 30.8837 26.2434 30.8837 27.3326H27.6161C27.6161 26.3561 27.4283 25.4172 27.0527 24.4406C26.6771 23.4641 26.1513 22.6003 25.4377 21.8491C24.7617 21.0604 23.8978 20.4594 22.9213 19.9712C21.9448 19.4829 20.818 19.2576 19.6161 19.2576V16.1778C20.7805 16.1778 21.8321 15.9524 22.8086 15.5017C23.7851 15.051 24.649 14.4501 25.3626 13.6989C26.0762 12.9477 26.6396 12.0839 27.0152 11.1074C27.4283 10.1308 27.6161 9.11676 27.6161 8.02756H30.8837ZM36.6677 8.02756C36.6677 8.92896 36.555 9.86794 36.3672 10.8069C36.1794 11.7459 35.9165 12.6097 35.5785 13.4735C35.2405 14.3374 34.8273 15.0886 34.3766 15.8397C33.9259 16.5533 33.4001 17.1918 32.8367 17.7176C33.4377 18.2059 33.9635 18.8444 34.4518 19.558C34.94 20.2716 35.3156 21.0604 35.6536 21.9242C35.9916 22.7881 36.217 23.6519 36.4048 24.5909C36.5926 25.5298 36.6677 26.4688 36.6677 27.4078H33.4001C33.2874 25.0416 32.8367 23.051 32.0104 21.5111C31.1842 19.9712 30.0198 18.7317 28.5175 17.7928C30.0198 16.7787 31.1842 15.5393 32.0104 13.9994C32.8367 12.4595 33.2874 10.5064 33.4001 8.14023H36.6677V8.02756Z" fill="black"/>
<path d="M13.8116 8.02756C13.8116 9.11676 13.9618 10.1308 14.2247 11.1074C14.5252 12.0839 14.9008 12.9853 15.389 13.8116C15.8773 14.6379 16.4782 15.389 17.1918 16.0275C17.9054 16.7036 18.6566 17.2294 19.4829 17.7176C18.6566 18.1684 17.8679 18.7317 17.1918 19.3702C16.4782 20.0087 15.8773 20.7599 15.389 21.5862C14.9008 22.4125 14.4876 23.3139 14.2247 24.2528C13.9242 25.2294 13.8116 26.2434 13.8116 27.3326H17.0792C17.0792 26.3561 17.267 25.4172 17.6425 24.4406C18.0181 23.4641 18.5439 22.6003 19.2576 21.8491C19.9336 21.0604 20.7974 20.4594 21.774 19.9712C22.7505 19.4829 23.8772 19.2576 25.0791 19.2576V16.1778C23.9148 16.1778 22.8632 15.9524 21.8866 15.5017C20.9101 15.051 20.0463 14.4501 19.3327 13.6989C18.6191 12.9477 18.0557 12.0839 17.6801 11.1074C17.2669 10.1308 17.0792 9.11676 17.0792 8.02756L13.8116 8.02756ZM8.02756 8.02756C8.02756 8.92897 8.14024 9.86794 8.32803 10.8069C8.51582 11.7459 8.77873 12.6097 9.11676 13.4735C9.45478 14.3374 9.86793 15.0886 10.3186 15.8397C10.7693 16.5533 11.2951 17.1918 11.8585 17.7176C11.2576 18.2059 10.7318 18.8444 10.2435 19.558C9.75525 20.2716 9.37967 21.0604 9.04164 21.9242C8.70361 22.7881 8.47826 23.6519 8.29047 24.5909C8.10268 25.5298 8.02756 26.4688 8.02756 27.4078H11.2952C11.4078 25.0416 11.8585 23.051 12.6848 21.5111C13.5111 19.9712 14.6754 18.7317 16.1778 17.7928C14.6754 16.7787 13.5111 15.5393 12.6848 13.9994C11.8585 12.4595 11.4078 10.5064 11.2951 8.14023L8.02756 8.14023L8.02756 8.02756Z" fill="black"/>
<path d="M60.0509 22.9821H60.7894L61.3134 21.6481L66.8875 9.38034H71.1753L63.362 26.055H57.4783L49.7127 9.38034H54.0004L59.5269 21.6481L60.0509 22.9821Z" fill="#07070A"/>
<path d="M73.048 26.055V9.38034H90.4611V12.5009H76.5735V16.1931H89.6989V19.3137H76.5735V22.9344H90.5564V26.055H73.048Z" fill="#07070A"/>
<path d="M99.7265 26.0312V12.7629H92.0324V9.35652H111.113V12.7629H103.419V26.0312H99.7265Z" fill="#07070A"/>
<path d="M116.892 12.6438V17.0507H125.61C127.539 17.0507 128.373 16.5266 128.373 14.74C128.373 13.1202 127.73 12.6438 125.61 12.6438H116.892ZM132.661 26.1979H128.111L125.801 21.4099C125.348 20.4332 124.633 20.0759 123.252 20.0759H116.892V26.055H113.199V9.38034H126.11C130.469 9.38034 132.423 10.8096 132.423 13.954C132.423 16.7886 130.851 18.3846 127.825 18.599V18.8849C128.969 19.1707 129.683 19.8377 130.374 21.3146L132.661 26.1979Z" fill="#07070A"/>
<path d="M134.647 26.055V9.38034H138.34V26.055H134.647Z" fill="#07070A"/>
<path d="M157.022 19.3375H160.928C160.976 23.7205 157.403 26.2932 151.114 26.2932C144.158 26.2932 140.49 23.1488 140.49 17.7653C140.49 12.215 144.349 9.14213 151.138 9.14213C157.403 9.14213 161 11.7624 161 16.1931H156.974C156.831 13.5252 155.354 12.5962 151.162 12.5962C146.136 12.5962 144.54 13.7872 144.54 17.7653C144.54 21.1717 145.802 22.8392 151.067 22.8392C155.259 22.8392 157.022 21.7196 157.022 19.3375Z" fill="#07070A"/>
</svg>
