<svg width="140" height="30" viewBox="0 0 140 30" fill="none" xmlns="http://www.w3.org/2000/svg">
<path d="M22.4191 13.371C22.0401 13.7523 21.7499 14.2125 21.569 14.7187C21.3882 15.225 21.3213 15.7649 21.373 16.3L21.355 16.282C21.4082 16.9119 21.3232 17.5457 21.1061 18.1394C20.889 18.733 20.5451 19.2721 20.0982 19.7191C19.6512 20.166 19.112 20.5101 18.5183 20.7271C17.9247 20.9442 17.2908 21.0292 16.661 20.976L16.6791 20.994C15.9257 20.9239 15.1689 21.0878 14.512 21.4635C13.8552 21.8392 13.3302 22.4083 13.0087 23.0933C12.6872 23.7783 12.5847 24.5457 12.7153 25.2911C12.846 26.0364 13.2033 26.7233 13.7386 27.2581C14.2739 27.7929 14.9611 28.1496 15.7065 28.2795C16.452 28.4095 17.2193 28.3063 17.904 27.9842C18.5887 27.662 19.1573 27.1366 19.5324 26.4794C19.9075 25.8222 20.0708 25.0654 20 24.312L20.019 24.33C19.9658 23.7002 20.0507 23.0663 20.2678 22.4726C20.4849 21.879 20.829 21.3399 21.2759 20.8929C21.7229 20.446 22.262 20.1019 22.8556 19.8849C23.4494 19.6678 24.0831 19.5828 24.713 19.636L24.694 19.618C25.3095 19.6733 25.929 19.5724 26.4951 19.3246C27.0611 19.0768 27.5554 18.6901 27.9322 18.2004C28.309 17.7107 28.5562 17.1337 28.6507 16.5231C28.7451 15.9124 28.684 15.2878 28.4727 14.707C28.2615 14.1263 27.9071 13.6083 27.4424 13.201C26.9777 12.7937 26.4178 12.5103 25.8144 12.3771C25.2109 12.2439 24.5837 12.2651 23.9907 12.4388C23.3976 12.6126 22.8582 12.9332 22.4221 13.371H22.4191Z" fill="#7A7B85"/>
<path d="M15.0422 18.636L15.0232 18.618C15.5585 18.6719 16.0991 18.6062 16.606 18.4256C17.1128 18.245 17.5732 17.9541 17.9538 17.5738C18.3343 17.1935 18.6257 16.7333 18.8066 16.2266C18.9876 15.7199 19.0537 15.1794 19.0002 14.644L19.0192 14.662C18.966 14.0321 19.051 13.3983 19.268 12.8046C19.4851 12.211 19.8292 11.6719 20.2761 11.2249C20.7231 10.778 21.2622 10.4339 21.8558 10.2169C22.4495 9.99976 23.0833 9.91483 23.7132 9.968L23.6942 9.95C24.4477 10.0208 25.2046 9.85736 25.8618 9.4821C26.5191 9.10684 27.0445 8.53797 27.3665 7.8531C27.6885 7.16824 27.7914 6.40071 27.6612 5.6552C27.531 4.90969 27.174 4.22251 26.6388 3.68737C26.1037 3.15224 25.4165 2.7952 24.671 2.66498C23.9255 2.53475 23.158 2.63766 22.4731 2.95968C21.7882 3.28169 21.2194 3.80714 20.8441 4.46435C20.4688 5.12155 20.3054 5.87852 20.3762 6.632L20.3582 6.613C20.4115 7.24289 20.3267 7.87683 20.1097 8.47055C19.8927 9.06427 19.5486 9.60346 19.1017 10.0505C18.6547 10.4974 18.1155 10.8415 17.5218 11.0585C16.928 11.2755 16.2941 11.3603 15.6642 11.307L15.6822 11.326C15.1469 11.2721 14.6062 11.3378 14.0994 11.5184C13.5926 11.6989 13.1322 11.9899 12.7516 12.3702C12.371 12.7505 12.0797 13.2107 11.8987 13.7174C11.7178 14.2241 11.6517 14.7646 11.7052 15.3L11.6872 15.282C11.7402 15.9118 11.6551 16.5456 11.438 17.1392C11.2208 17.7327 10.8768 18.2718 10.4299 18.7187C9.98291 19.1656 9.44387 19.5096 8.85031 19.7268C8.25675 19.9439 7.62296 20.029 6.99315 19.976L7.01115 19.994C6.25767 19.9232 5.5007 20.0866 4.84349 20.4619C4.18629 20.8372 3.66084 21.406 3.33883 22.0909C3.01681 22.7758 2.91389 23.5433 3.04412 24.2888C3.17435 25.0343 3.53139 25.7215 4.06652 26.2566C4.60166 26.7918 5.28884 27.1488 6.03435 27.279C6.77986 27.4092 7.54739 27.3063 8.23226 26.9843C8.91712 26.6623 9.48599 26.1369 9.86125 25.4797C10.2366 24.8224 10.4 24.0655 10.3292 23.312L10.3482 23.33C10.295 22.7001 10.38 22.0663 10.5971 21.4726C10.8141 20.879 11.1582 20.3399 11.6051 19.8929C12.0521 19.446 12.5912 19.1019 13.1848 18.8849C13.7785 18.6678 14.4123 18.5828 15.0422 18.636Z" fill="#7A7B85"/>
<path d="M8.34021 16.629C8.71923 16.2478 9.00941 15.7876 9.19005 15.2813C9.37069 14.775 9.43733 14.235 9.38521 13.7L9.4042 13.718C9.351 13.088 9.43596 12.4539 9.65317 11.8601C9.87038 11.2663 10.2146 10.7271 10.6618 10.2801C11.109 9.83312 11.6483 9.48913 12.2422 9.27218C12.8361 9.05522 13.4702 8.97052 14.1002 9.024L14.0812 9.006C14.8344 9.07657 15.5911 8.91308 16.248 8.53784C16.9049 8.16261 17.43 7.59388 17.7519 6.90923C18.0737 6.22457 18.1765 5.45732 18.0463 4.71209C17.9161 3.96686 17.5591 3.27994 17.0242 2.745C16.4893 2.21006 15.8023 1.85314 15.0571 1.72292C14.3119 1.59269 13.5446 1.69551 12.86 2.01733C12.1753 2.33915 11.6066 2.86432 11.2314 3.52122C10.8561 4.17812 10.6926 4.93478 10.7632 5.688L10.7452 5.67C10.7984 6.29985 10.7134 6.93372 10.4963 7.52736C10.2792 8.121 9.93523 8.66011 9.48827 9.10707C9.04132 9.55403 8.5022 9.89806 7.90856 10.1151C7.31492 10.3322 6.68106 10.4172 6.05121 10.364L6.06921 10.382C5.45378 10.3268 4.83437 10.4279 4.26839 10.6758C3.70241 10.9237 3.20816 11.3105 2.83145 11.8003C2.45474 12.29 2.20776 12.867 2.11338 13.4776C2.01901 14.0883 2.0803 14.7129 2.29157 15.2935C2.50284 15.8742 2.85727 16.3921 3.322 16.7993C3.78673 17.2066 4.34673 17.4899 4.95011 17.6231C5.55348 17.7562 6.18071 17.7349 6.77368 17.5612C7.36664 17.3874 7.90614 17.0668 8.3422 16.629H8.34021Z" fill="#7A7B85"/>
<path d="M39.3174 6.65503H42.2874V21.108H39.3174V6.65503Z" fill="#7A7B85"/>
<path d="M43.9689 16.159C43.9648 15.1204 44.269 14.1038 44.843 13.2382C45.417 12.3726 46.235 11.6968 47.1934 11.2965C48.1518 10.8961 49.2074 10.7892 50.2266 10.9893C51.2458 11.1894 52.1827 11.6874 52.9186 12.4204C53.6545 13.1533 54.1563 14.0882 54.3605 15.1066C54.5647 16.125 54.462 17.1811 54.0655 18.1411C53.669 19.101 52.9965 19.9218 52.1332 20.4992C51.2698 21.0767 50.2546 21.385 49.2159 21.385C48.5265 21.3929 47.8424 21.2632 47.2036 21.0036C46.5648 20.744 45.9842 20.3597 45.4957 19.8732C45.0071 19.3866 44.6205 18.8075 44.3584 18.1698C44.0962 17.5321 43.9638 16.8485 43.9689 16.159ZM51.4929 16.159C51.4805 15.7113 51.3364 15.2772 51.0787 14.9109C50.8209 14.5447 50.4609 14.2625 50.0437 14.0998C49.6264 13.937 49.1705 13.9008 48.7328 13.9958C48.2951 14.0908 47.8951 14.3126 47.5828 14.6337C47.2706 14.9547 47.0598 15.3607 46.9771 15.8009C46.8943 16.241 46.943 16.6958 47.1173 17.1084C47.2916 17.521 47.5836 17.873 47.9568 18.1205C48.3301 18.368 48.7681 18.5 49.2159 18.5C49.5226 18.5082 49.8277 18.4527 50.112 18.3371C50.3962 18.2215 50.6534 18.0483 50.8673 17.8284C51.0812 17.6084 51.2473 17.3465 51.3549 17.0592C51.4626 16.7719 51.5096 16.4654 51.4929 16.159Z" fill="#7A7B85"/>
<path d="M66.2999 11.209V20.609C66.2999 23.935 63.7059 25.341 61.0729 25.341C60.1459 25.4104 59.2176 25.2231 58.3899 24.7998C57.5623 24.3764 56.8672 23.7333 56.3809 22.941L58.9149 21.476C59.1193 21.889 59.445 22.2297 59.8483 22.4526C60.2517 22.6754 60.7135 22.7698 61.1719 22.723C61.4649 22.7636 61.7633 22.7378 62.045 22.6475C62.3266 22.5572 62.5844 22.4047 62.7992 22.2014C63.014 21.998 63.1803 21.749 63.2859 21.4726C63.3914 21.1963 63.4334 20.8998 63.4089 20.605V19.7C63.0611 20.1255 62.6185 20.4636 62.1164 20.6871C61.6143 20.9106 61.0669 21.0133 60.5179 20.987C59.2117 20.9458 57.9728 20.398 57.0634 19.4594C56.154 18.5209 55.6455 17.2653 55.6455 15.9585C55.6455 14.6517 56.154 13.3961 57.0634 12.4576C57.9728 11.519 59.2117 10.9712 60.5179 10.93C61.0669 10.9037 61.6143 11.0064 62.1164 11.2299C62.6185 11.4534 63.0611 11.7915 63.4089 12.217V11.207L66.2999 11.209ZM63.4099 15.96C63.4299 15.4814 63.3061 15.0077 63.0546 14.6C62.8031 14.1922 62.4353 13.8691 61.9986 13.6722C61.5619 13.4752 61.0763 13.4135 60.6042 13.4949C60.1321 13.5763 59.6952 13.7971 59.3496 14.129C59.0041 14.4608 58.7658 14.8884 58.6653 15.3568C58.5649 15.8252 58.6069 16.313 58.7861 16.7573C58.9652 17.2016 59.2732 17.5822 59.6704 17.85C60.0676 18.1178 60.5359 18.2606 61.0149 18.26C61.327 18.2818 61.6401 18.238 61.9342 18.1314C62.2283 18.0248 62.4968 17.8577 62.7224 17.6411C62.948 17.4244 63.1258 17.1629 63.2442 16.8733C63.3626 16.5838 63.4191 16.2727 63.4099 15.96Z" fill="#7A7B85"/>
<path d="M67.9816 16.159C67.9775 15.1204 68.2816 14.1038 68.8557 13.2382C69.4297 12.3726 70.2477 11.6968 71.2061 11.2965C72.1645 10.8961 73.2201 10.7892 74.2393 10.9893C75.2585 11.1894 76.1954 11.6874 76.9313 12.4204C77.6672 13.1533 78.169 14.0882 78.3732 15.1066C78.5774 16.125 78.4747 17.1811 78.0782 18.1411C77.6817 19.101 77.0092 19.9218 76.1459 20.4992C75.2825 21.0767 74.2673 21.385 73.2286 21.385C72.5392 21.3929 71.855 21.2632 71.2163 21.0036C70.5775 20.744 69.9969 20.3597 69.5084 19.8732C69.0198 19.3866 68.6332 18.8075 68.3711 18.1698C68.1089 17.5321 67.9765 16.8485 67.9816 16.159ZM75.5056 16.159C75.4932 15.7113 75.3491 15.2772 75.0914 14.9109C74.8336 14.5447 74.4736 14.2625 74.0564 14.0998C73.6391 13.937 73.1831 13.9008 72.7455 13.9958C72.3078 14.0908 71.9078 14.3126 71.5955 14.6337C71.2833 14.9547 71.0725 15.3607 70.9897 15.8009C70.9069 16.241 70.9557 16.6958 71.13 17.1084C71.3043 17.521 71.5963 17.873 71.9695 18.1205C72.3428 18.368 72.7807 18.5 73.2286 18.5C73.5353 18.5082 73.8404 18.4527 74.1246 18.3371C74.4089 18.2215 74.6661 18.0483 74.88 17.8284C75.0939 17.6084 75.26 17.3465 75.3676 17.0592C75.4753 16.7719 75.5223 16.4654 75.5056 16.159Z" fill="#7A7B85"/>
<path d="M79.8613 8.55599C79.8613 8.20354 79.9658 7.85901 80.1616 7.56597C80.3574 7.27292 80.6358 7.04451 80.9614 6.90964C81.287 6.77476 81.6453 6.73947 81.991 6.80823C82.3366 6.87699 82.6542 7.04671 82.9034 7.29593C83.1526 7.54514 83.3223 7.86266 83.3911 8.20834C83.4598 8.55401 83.4245 8.91231 83.2897 9.23793C83.1548 9.56355 82.9264 9.84186 82.6333 10.0377C82.3403 10.2335 81.9958 10.338 81.6433 10.338C81.1722 10.3333 80.7216 10.1441 80.3884 9.81087C80.0553 9.47769 79.866 9.02715 79.8613 8.55599ZM80.1613 11.209H83.1323V21.109H80.1573L80.1613 11.209Z" fill="#7A7B85"/>
<path d="M95.9557 16.159C95.99 16.8133 95.8947 17.4679 95.6751 18.0852C95.4556 18.7025 95.1162 19.2703 94.6764 19.756C94.2367 20.2416 93.7052 20.6356 93.1127 20.9152C92.5201 21.1947 91.8782 21.3544 91.2237 21.385C90.6733 21.415 90.1232 21.3222 89.6131 21.1133C89.103 20.9043 88.6459 20.5845 88.2747 20.177V25.068H85.3047V11.209H88.2747V12.139C88.646 11.7318 89.1033 11.4122 89.6133 11.2035C90.1234 10.9947 90.6734 10.902 91.2237 10.932C91.8783 10.9625 92.5204 11.1221 93.1131 11.4017C93.7058 11.6813 94.2373 12.0753 94.6771 12.5611C95.1169 13.0469 95.4563 13.6149 95.6757 14.2324C95.8951 14.8498 95.9903 15.5046 95.9557 16.159ZM92.9857 16.159C92.9741 15.6957 92.8261 15.2461 92.5602 14.8664C92.2943 14.4868 91.9224 14.194 91.491 14.0248C91.0595 13.8555 90.5877 13.8172 90.1346 13.9148C89.6815 14.0123 89.2673 14.2413 88.9437 14.5731C88.6201 14.905 88.4016 15.3248 88.3155 15.7803C88.2294 16.2357 88.2795 16.7063 88.4596 17.1334C88.6396 17.5605 88.9417 17.9249 89.3279 18.1812C89.7141 18.4374 90.1672 18.5741 90.6307 18.574C90.9489 18.5882 91.2665 18.5349 91.5627 18.4177C91.8588 18.3006 92.1269 18.1221 92.3492 17.8941C92.5716 17.666 92.7432 17.3936 92.8529 17.0946C92.9626 16.7956 93.0079 16.4767 92.9857 16.159Z" fill="#7A7B85"/>
<path d="M105.121 18.138C105.121 20.415 103.142 21.385 101.004 21.385C100.14 21.4632 99.2728 21.2806 98.5139 20.8605C97.755 20.4405 97.1396 19.8025 96.7471 19.029L99.3201 17.564C99.4242 17.9215 99.6478 18.2326 99.9535 18.4451C100.259 18.6577 100.629 18.759 101 18.732C101.712 18.732 102.069 18.514 102.069 18.119C102.069 17.029 97.1981 17.604 97.1981 14.179C97.1981 12.02 99.0201 10.932 101.079 10.932C101.853 10.9075 102.619 11.0911 103.298 11.4636C103.977 11.8362 104.544 12.384 104.939 13.05L102.405 14.416C102.294 14.1567 102.109 13.9358 101.873 13.7809C101.637 13.626 101.361 13.544 101.079 13.545C100.564 13.545 100.247 13.745 100.247 14.099C100.251 15.228 105.121 14.475 105.121 18.138Z" fill="#7A7B85"/>
<path d="M115.97 11.209V21.109H113V20.178C112.657 20.5888 112.222 20.9125 111.73 21.1225C111.238 21.3325 110.704 21.4228 110.17 21.386C108.17 21.386 106.47 19.961 106.47 17.286V11.209H109.44V16.851C109.415 17.0868 109.442 17.3252 109.519 17.5495C109.595 17.7739 109.72 17.9789 109.884 18.1502C110.048 18.3215 110.247 18.455 110.468 18.5415C110.688 18.628 110.925 18.6654 111.162 18.651C112.251 18.651 113.003 18.018 113.003 16.612V11.212L115.97 11.209Z" fill="#7A7B85"/>
<path d="M133 15.03V21.108H130.03V15.287C130.03 14.297 129.555 13.664 128.605 13.664C127.615 13.664 127.06 14.357 127.06 15.525V21.108H124.091V15.287C124.091 14.297 123.616 13.664 122.665 13.664C121.675 13.664 121.121 14.357 121.121 15.525V21.108H118.151V11.208H121.121V12.118C121.429 11.7143 121.833 11.3941 122.296 11.1868C122.76 10.9794 123.268 10.8915 123.774 10.931C124.282 10.9061 124.788 11.0134 125.243 11.2423C125.697 11.4711 126.084 11.8139 126.367 12.237C126.696 11.7943 127.132 11.4423 127.634 11.2139C128.136 10.9855 128.688 10.8882 129.238 10.931C131.511 10.932 133 12.555 133 15.03Z" fill="#7A7B85"/>
<path d="M135.512 11.148C136.729 11.148 137.716 10.1612 137.716 8.94399C137.716 7.72675 136.729 6.73999 135.512 6.73999C134.295 6.73999 133.308 7.72675 133.308 8.94399C133.308 10.1612 134.295 11.148 135.512 11.148Z" fill="#7A7B85"/>
</svg>
