<svg width="44" height="44" viewBox="0 0 44 44" fill="none" xmlns="http://www.w3.org/2000/svg">
<mask id="mask0_0_188" style="mask-type:alpha" maskUnits="userSpaceOnUse" x="0" y="0" width="44" height="44">
<rect width="44" height="44" fill="#C4C4C4"/>
</mask>
<g mask="url(#mask0_0_188)">
<rect width="44" height="44" rx="21.76" fill="#FF8300"/>
<path d="M32.4832 19.2667C32.9224 16.3354 30.689 14.7593 27.6374 13.7077L28.6276 9.73591L26.211 9.13455L25.246 13.0014C24.6111 12.842 23.9594 12.6937 23.3091 12.5455L24.281 8.65347L21.8644 8.05071L20.8743 12.0211C20.3484 11.9008 19.831 11.7833 19.3303 11.6574L19.3331 11.6449L15.9991 10.8128L15.3558 13.3944C15.3558 13.3944 17.1501 13.8055 17.1123 13.8307C18.0913 14.0755 18.2675 14.723 18.2381 15.2376L17.1109 19.7618C17.178 19.7785 17.2647 19.8037 17.3626 19.8415L17.1067 19.7785L15.5264 26.1166C15.4061 26.413 15.1027 26.8592 14.4174 26.6899C14.4426 26.7249 12.6609 26.2522 12.6609 26.2522L11.461 29.0184L14.6076 29.803C15.1922 29.9498 15.7655 30.1037 16.3291 30.2477L15.3292 34.2642L17.7444 34.8656L18.7346 30.8938C19.3947 31.0714 20.0352 31.2365 20.6617 31.3931L19.6744 35.3481L22.091 35.9494L23.0909 31.9413C27.2137 32.7217 30.3128 32.407 31.6176 28.6786C32.6692 25.6774 31.5658 23.9447 29.3967 22.8161C30.977 22.4525 32.1658 21.4134 32.4832 19.2667ZM26.9592 27.0116C26.2138 30.0142 21.1582 28.3905 19.5191 27.9836L20.8477 22.6623C22.4867 23.072 27.7409 23.8817 26.9592 27.0116ZM27.7074 19.2233C27.0263 21.9546 22.8196 20.5659 21.4561 20.2261L22.6588 15.4012C24.0223 15.7411 28.4178 16.3746 27.7074 19.2233Z" fill="white"/>
</g>
</svg>
