<svg width="44" height="44" viewBox="0 0 44 44" fill="none" xmlns="http://www.w3.org/2000/svg">
<mask id="mask0_0_183" style="mask-type:alpha" maskUnits="userSpaceOnUse" x="0" y="0" width="44" height="44">
<circle cx="22" cy="22" r="22" fill="#C4C4C4"/>
</mask>
<g mask="url(#mask0_0_183)">
</g>
<g clip-path="url(#clip0_0_183)">
<path d="M35.5452 7.54816H8.39628V32.2396H35.5452V7.54816Z" fill="white"/>
<path fill-rule="evenodd" clip-rule="evenodd" d="M43.9553 22.0004C43.9553 34.1346 34.1188 43.9711 21.9846 43.9711C9.85045 43.9711 0.0138227 34.1346 0.0138227 22.0004C0.0138227 9.86625 9.85045 0.02962 21.9846 0.02962C34.1188 0.02962 43.9553 9.86625 43.9553 22.0004ZM15.7587 30.7436H11.4948C10.5988 30.7436 10.1562 30.7436 9.88638 30.571C9.59491 30.382 9.4168 30.069 9.39521 29.7235C9.379 29.4052 9.60032 29.0164 10.0429 28.2392L20.571 9.68197C21.019 8.89395 21.2457 8.49994 21.5317 8.35422C21.8394 8.1977 22.2064 8.1977 22.514 8.35422C22.8001 8.49994 23.0268 8.89395 23.4748 9.68197L25.6391 13.4601L25.6502 13.4794C26.134 14.3248 26.3794 14.7535 26.4865 15.2034C26.6052 15.6946 26.6052 16.2127 26.4865 16.7039C26.3786 17.1573 26.1357 17.5891 25.6445 18.4473L20.1144 28.223L20.1 28.2481C19.613 29.1004 19.3662 29.5324 19.0241 29.8583C18.6517 30.2147 18.2037 30.4736 17.7125 30.6195C17.2645 30.7436 16.7626 30.7436 15.7587 30.7436ZM26.5264 30.7436H32.6361C33.5375 30.7436 33.9909 30.7436 34.261 30.5657C34.5523 30.3767 34.7358 30.0581 34.7522 29.7129C34.7677 29.4049 34.5512 29.0313 34.127 28.2992C34.1123 28.2743 34.0977 28.2489 34.0828 28.2231L31.0224 22.9877L30.9876 22.9288C30.5575 22.2015 30.3405 21.8343 30.0617 21.6924C29.7542 21.5358 29.3923 21.5358 29.0848 21.6924C28.8041 21.8381 28.5774 22.2213 28.1295 22.9931L25.0799 28.2285L25.0695 28.2466C24.6231 29.0172 24.4 29.4022 24.4161 29.7182C24.4377 30.0637 24.6158 30.382 24.9072 30.571C25.1717 30.7436 25.6251 30.7436 26.5264 30.7436Z" fill="#E84142"/>
</g>
<defs>
<clipPath id="clip0_0_183">
<rect width="43.4911" height="43.52" fill="white" transform="scale(1.01103)"/>
</clipPath>
</defs>
</svg>
