<svg width="19" height="13" viewBox="0 0 19 13" fill="none" xmlns="http://www.w3.org/2000/svg">
<path d="M16.8679 7.63634C16.3977 5.80764 15.268 4.21731 13.6961 3.17119H18.3663C18.5342 3.17119 18.6953 3.10447 18.814 2.98571C18.9328 2.86696 18.9995 2.70589 18.9995 2.53794C18.9995 2.36999 18.9328 2.20893 18.814 2.09017C18.6953 1.97141 18.5342 1.9047 18.3663 1.9047H11.9547C11.8152 1.35985 11.4983 0.876919 11.054 0.532054C10.6097 0.187188 10.0633 0 9.50086 0C8.93843 0 8.392 0.187188 7.94771 0.532054C7.50342 0.876919 7.18654 1.35985 7.04704 1.9047H0.635448C0.467502 1.9047 0.306434 1.97141 0.187677 2.09017C0.0689211 2.20893 0.0022046 2.36999 0.0022046 2.53794C0.0022046 2.70589 0.0689211 2.86696 0.187677 2.98571C0.306434 3.10447 0.467502 3.17119 0.635448 3.17119H5.30562C3.73372 4.21731 2.60406 5.80764 2.13386 7.63634C1.52585 7.73336 0.973984 8.04851 0.581465 8.52288C0.188946 8.99725 -0.0173523 9.59834 0.00114414 10.2138C0.0196406 10.8292 0.261666 11.4168 0.681964 11.8668C1.10226 12.3167 1.67206 12.5981 2.2848 12.6585C2.89754 12.7188 3.51128 12.5539 4.01125 12.1945C4.51123 11.8352 4.8632 11.3061 5.00136 10.7061C5.13952 10.106 5.0544 9.47626 4.76193 8.93446C4.46945 8.39265 3.98964 7.97593 3.41222 7.7622C3.6841 6.82478 4.16745 5.96224 4.82505 5.24096C5.48265 4.51969 6.29698 3.95891 7.20535 3.60179C7.40859 4.04002 7.7329 4.411 8.14004 4.67097C8.54718 4.93094 9.02017 5.06908 9.50323 5.06908C9.9863 5.06908 10.4593 4.93094 10.8664 4.67097C11.2736 4.411 11.5979 4.04002 11.8011 3.60179C12.7086 3.95951 13.522 4.52055 14.1787 5.24179C14.8355 5.96303 15.3181 6.82526 15.5895 7.7622C15.0118 7.9752 14.5315 8.39133 14.2383 8.93278C13.9452 9.47422 13.8593 10.1039 13.9967 10.7041C14.1341 11.3043 14.4854 11.8339 14.9849 12.1938C15.4845 12.5538 16.098 12.7194 16.7108 12.6599C17.3237 12.6003 17.8938 12.3195 18.3147 11.8701C18.7355 11.4207 18.9782 10.8334 18.9975 10.2179C19.0167 9.60253 18.8112 9.00118 18.4192 8.52633C18.0273 8.05149 17.4758 7.73567 16.8679 7.63793V7.63634ZM3.80167 10.1369C3.80167 10.3874 3.72739 10.6322 3.58822 10.8405C3.44906 11.0488 3.25126 11.2111 3.01984 11.3069C2.78842 11.4028 2.53377 11.4279 2.2881 11.379C2.04243 11.3301 1.81676 11.2095 1.63964 11.0324C1.46252 10.8553 1.34189 10.6296 1.29303 10.3839C1.24416 10.1383 1.26924 9.88362 1.3651 9.6522C1.46095 9.42078 1.62328 9.22298 1.83156 9.08382C2.03983 8.94466 2.28469 8.87038 2.53518 8.87038C2.87107 8.87038 3.19321 9.00381 3.43072 9.24132C3.66823 9.47884 3.80167 9.80097 3.80167 10.1369ZM9.50086 3.80443C9.25037 3.80443 9.00551 3.73015 8.79724 3.59099C8.58896 3.45182 8.42664 3.25403 8.33078 3.02261C8.23492 2.79118 8.20984 2.53654 8.25871 2.29086C8.30758 2.04519 8.4282 1.81952 8.60532 1.6424C8.78244 1.46528 9.00811 1.34466 9.25378 1.29579C9.49945 1.24692 9.7541 1.272 9.98552 1.36786C10.2169 1.46372 10.4147 1.62605 10.5539 1.83432C10.6931 2.04259 10.7673 2.28745 10.7673 2.53794C10.7673 2.87383 10.6339 3.19597 10.3964 3.43348C10.1589 3.671 9.83675 3.80443 9.50086 3.80443ZM16.4665 11.4034C16.2161 11.4034 15.9712 11.3291 15.7629 11.1899C15.5546 11.0507 15.3923 10.8529 15.2965 10.6215C15.2006 10.3901 15.1755 10.1355 15.2244 9.88979C15.2733 9.64411 15.3939 9.41845 15.571 9.24132C15.7481 9.0642 15.9738 8.94358 16.2195 8.89471C16.4651 8.84584 16.7198 8.87093 16.9512 8.96678C17.1826 9.06264 17.3804 9.22497 17.5196 9.43324C17.6587 9.64151 17.733 9.88638 17.733 10.1369C17.733 10.4728 17.5996 10.7949 17.3621 11.0324C17.1246 11.2699 16.8024 11.4034 16.4665 11.4034Z" fill="#4D4F5C"/>
</svg>
