<svg width="14" height="17" viewBox="0 0 14 17" fill="none" xmlns="http://www.w3.org/2000/svg">
<path d="M13.8139 4.64068L9.35932 0.186137C9.30018 0.12706 9.22997 0.0802149 9.15272 0.048277C9.07547 0.0163392 8.99268 -6.55364e-05 8.90909 1.96763e-07H1.27273C0.935179 1.96763e-07 0.611456 0.134091 0.372773 0.372773C0.13409 0.611456 0 0.935179 0 1.27273V15.2727C0 15.6103 0.13409 15.934 0.372773 16.1727C0.611456 16.4114 0.935179 16.5455 1.27273 16.5455H12.7273C13.0648 16.5455 13.3885 16.4114 13.6272 16.1727C13.8659 15.934 14 15.6103 14 15.2727V5.09091C14.0001 5.00732 13.9837 4.92453 13.9517 4.84728C13.9198 4.77003 13.8729 4.69982 13.8139 4.64068ZM9.54545 12.0909H4.45455C4.28577 12.0909 4.12391 12.0239 4.00457 11.9045C3.88523 11.7852 3.81818 11.6233 3.81818 11.4545C3.81818 11.2858 3.88523 11.1239 4.00457 11.0046C4.12391 10.8852 4.28577 10.8182 4.45455 10.8182H9.54545C9.71423 10.8182 9.87609 10.8852 9.99543 11.0046C10.1148 11.1239 10.1818 11.2858 10.1818 11.4545C10.1818 11.6233 10.1148 11.7852 9.99543 11.9045C9.87609 12.0239 9.71423 12.0909 9.54545 12.0909ZM9.54545 9.54545H4.45455C4.28577 9.54545 4.12391 9.47841 4.00457 9.35907C3.88523 9.23973 3.81818 9.07786 3.81818 8.90909C3.81818 8.74032 3.88523 8.57845 4.00457 8.45911C4.12391 8.33977 4.28577 8.27273 4.45455 8.27273H9.54545C9.71423 8.27273 9.87609 8.33977 9.99543 8.45911C10.1148 8.57845 10.1818 8.74032 10.1818 8.90909C10.1818 9.07786 10.1148 9.23973 9.99543 9.35907C9.87609 9.47841 9.71423 9.54545 9.54545 9.54545ZM8.90909 5.09091V1.59091L12.4091 5.09091H8.90909Z" fill="#96EA63"/>
</svg>
