<svg width="7" height="12" viewBox="0 0 7 12" fill="none" xmlns="http://www.w3.org/2000/svg">
<path d="M6.55424 6.55424L1.33802 11.7705C1.19103 11.9175 0.991666 12 0.783791 12C0.575917 12 0.376556 11.9175 0.229567 11.7705C0.0825776 11.6235 1.54878e-09 11.4241 0 11.2162C-1.54878e-09 11.0084 0.0825776 10.809 0.229567 10.662L4.89222 6.00067L0.230871 1.33802C0.15809 1.26523 0.100356 1.17883 0.0609665 1.08374C0.0215773 0.988642 0.00130384 0.886721 0.00130384 0.783792C0.00130384 0.680863 0.0215773 0.578941 0.0609665 0.483847C0.100356 0.388753 0.15809 0.302349 0.230871 0.229567C0.303653 0.156786 0.390058 0.0990519 0.485152 0.0596627C0.580246 0.0202735 0.682167 -7.6688e-10 0.785096 0C0.888025 7.66881e-10 0.989946 0.0202735 1.08504 0.0596627C1.18013 0.0990519 1.26654 0.156786 1.33932 0.229567L6.55555 5.4458C6.62841 5.51857 6.68618 5.60502 6.72556 5.70017C6.76494 5.79532 6.78515 5.89731 6.78503 6.00029C6.78491 6.10327 6.76446 6.20521 6.72485 6.30027C6.68525 6.39533 6.62727 6.48164 6.55424 6.55424Z" fill="#1A1C29"/>
</svg>
