<svg width="19" height="19" viewBox="0 0 19 19" fill="none" xmlns="http://www.w3.org/2000/svg">
<path d="M9.5 0C7.62108 0 5.78435 0.557165 4.22209 1.60104C2.65982 2.64491 1.44218 4.12861 0.723149 5.86451C0.0041162 7.6004 -0.184015 9.51054 0.182544 11.3534C0.549104 13.1962 1.45389 14.8889 2.78249 16.2175C4.11109 17.5461 5.80383 18.4509 7.64664 18.8175C9.48946 19.184 11.3996 18.9959 13.1355 18.2769C14.8714 17.5578 16.3551 16.3402 17.399 14.7779C18.4428 13.2156 19 11.3789 19 9.5C18.9973 6.98126 17.9956 4.56644 16.2146 2.78542C14.4336 1.0044 12.0187 0.00265983 9.5 0ZM3.325 4.35904L4.88428 5.91832C4.23872 6.74422 3.82842 7.72926 3.69678 8.76923H1.49534C1.64221 7.14722 2.28052 5.60865 3.325 4.35904ZM1.49534 10.2308H3.70135C3.83299 11.2707 4.24329 12.2558 4.88885 13.0817L3.325 14.641C2.28052 13.3913 1.64221 11.8528 1.49534 10.2308ZM8.76923 17.5047C7.14753 17.3586 5.60899 16.7212 4.35904 15.6777L5.91832 14.1185C6.74501 14.7614 7.72999 15.1691 8.76923 15.2987V17.5047ZM8.76923 3.70135C7.72927 3.83298 6.74422 4.24329 5.91832 4.88884L4.35904 3.325C5.60899 2.28151 7.14753 1.64416 8.76923 1.49808V3.70135ZM17.5047 8.76923H15.2987C15.1684 7.72972 14.7596 6.74471 14.1157 5.91832L15.675 4.35904C16.7195 5.60865 17.3578 7.14722 17.5047 8.76923ZM10.2308 1.49534C11.8525 1.64142 13.391 2.27877 14.641 3.32226L13.0817 4.88428C12.2558 4.23872 11.2707 3.82841 10.2308 3.69678V1.49534ZM10.2308 17.5047V15.2987C11.2703 15.1683 12.2553 14.7596 13.0817 14.1157L14.641 15.675C13.3913 16.7195 11.8528 17.3578 10.2308 17.5047ZM15.675 14.641L14.1157 13.0817C14.7596 12.2553 15.1684 11.2703 15.2987 10.2308H17.5047C17.3578 11.8528 16.7195 13.3913 15.675 14.641Z" fill="#96EA63"/>
</svg>
