<svg width="14" height="14" viewBox="0 0 14 14" fill="none" xmlns="http://www.w3.org/2000/svg">
<path d="M6.89626 0.000746218C3.14708 0.0579703 0.0832288 3.10229 0.00176864 6.85081C-0.0266427 8.11159 0.287709 9.35643 0.911295 10.4526C0.935754 10.4955 0.971539 10.5308 1.01474 10.5548C1.05794 10.5787 1.10689 10.5903 1.15623 10.5883C1.20558 10.5862 1.25342 10.5707 1.29452 10.5433C1.33562 10.5159 1.36841 10.4778 1.38929 10.433C1.89511 9.36012 2.15699 8.18847 2.15609 7.00228C2.15561 5.83066 2.57993 4.69858 3.35039 3.81591C3.43748 3.71218 3.5596 3.644 3.6936 3.62427C3.8276 3.60454 3.96418 3.63464 4.07747 3.70887C4.1406 3.75206 4.19381 3.8082 4.23355 3.87355C4.27329 3.93891 4.29865 4.01198 4.30795 4.0879C4.31725 4.16382 4.31027 4.24085 4.28748 4.31387C4.26469 4.38688 4.2266 4.4542 4.17576 4.51135C3.56858 5.19909 3.23342 6.08487 3.23325 7.00228C3.23527 8.61827 2.80677 10.2056 1.99182 11.6011C1.96161 11.6524 1.94925 11.7123 1.95668 11.7713C1.96411 11.8304 1.99091 11.8854 2.03289 11.9276C2.30017 12.1986 2.58904 12.4474 2.89664 12.6715C2.92707 12.6938 2.96184 12.7095 2.99872 12.7175C3.03559 12.7255 3.07373 12.7257 3.11067 12.718C3.14762 12.7103 3.18253 12.695 3.21316 12.6729C3.24378 12.6509 3.26944 12.6226 3.28845 12.5901C3.5772 12.1165 3.82884 11.6213 4.04112 11.109C4.06808 11.0435 4.10767 10.9841 4.15762 10.9339C4.20757 10.8838 4.2669 10.844 4.33223 10.8168C4.39755 10.7896 4.4676 10.7756 4.53836 10.7754C4.60912 10.7753 4.67921 10.7891 4.74464 10.8161C4.81006 10.8431 4.86953 10.8827 4.91966 10.9326C4.96978 10.9826 5.00957 11.0419 5.03677 11.1072C5.06396 11.1725 5.07802 11.2426 5.07815 11.3133C5.07827 11.3841 5.06446 11.4542 5.03749 11.5196C4.81134 12.067 4.54468 12.5967 4.23972 13.1044C4.21995 13.1375 4.20752 13.1745 4.20328 13.2128C4.19905 13.2512 4.2031 13.29 4.21516 13.3266C4.22723 13.3633 4.24703 13.3969 4.27321 13.4252C4.2994 13.4536 4.33137 13.4759 4.36696 13.4908C4.90689 13.711 5.47233 13.8626 6.05002 13.9419C6.10395 13.9498 6.15902 13.9412 6.20795 13.9171C6.25687 13.8931 6.29735 13.8548 6.32402 13.8072C7.31083 12.0344 7.89835 10.0674 8.04546 8.04376C8.04843 7.97168 8.06586 7.90092 8.09671 7.8357C8.12755 7.77047 8.17119 7.71211 8.22503 7.66408C8.27886 7.61605 8.3418 7.57932 8.41011 7.55608C8.47841 7.53284 8.55069 7.52357 8.62265 7.5288C8.69461 7.53403 8.76478 7.55367 8.829 7.58655C8.89323 7.61943 8.95019 7.66487 8.99651 7.72019C9.04283 7.77551 9.07757 7.83957 9.09865 7.90857C9.11973 7.97756 9.12674 8.0501 9.11925 8.12186C8.98222 10.0094 8.48927 11.8539 7.66643 13.5581C7.64492 13.6017 7.6356 13.6503 7.63947 13.6988C7.64334 13.7472 7.66025 13.7937 7.68842 13.8334C7.71658 13.873 7.75494 13.9042 7.79942 13.9238C7.84391 13.9434 7.89287 13.9506 7.94111 13.9446C8.41355 13.8811 8.87826 13.7695 9.32795 13.6113C9.36334 13.5987 9.39569 13.5789 9.42294 13.553C9.45018 13.5271 9.47172 13.4959 9.48616 13.4612C10.3257 11.4522 10.763 9.29809 10.7734 7.12077C10.7882 5.05801 9.19802 3.30561 7.13795 3.23425C6.77519 3.22167 6.41248 3.26089 6.06079 3.35071C5.98975 3.36895 5.91573 3.37249 5.84327 3.3611C5.77082 3.34972 5.70145 3.32366 5.63942 3.28451C5.57739 3.24537 5.52402 3.19397 5.48256 3.13346C5.44111 3.07295 5.41245 3.00462 5.39834 2.93264C5.37487 2.79313 5.40566 2.64992 5.4844 2.53238C5.56313 2.41484 5.68385 2.33187 5.8218 2.30048C6.53671 2.12148 7.28301 2.10773 8.00403 2.26029C8.72505 2.41285 9.40183 2.7277 9.98297 3.18093C10.5641 3.63416 11.0343 4.21386 11.3579 4.876C11.6815 5.53813 11.85 6.2653 11.8505 7.00228C11.8521 8.7027 11.6105 10.3946 11.1329 12.0266C11.1162 12.0825 11.1182 12.1424 11.1385 12.1972C11.1588 12.2519 11.1964 12.2986 11.2456 12.3301C11.2947 12.3616 11.3528 12.3763 11.411 12.372C11.4693 12.3676 11.5245 12.3444 11.5684 12.3059C12.6577 11.3675 13.4317 10.1164 13.7851 8.72276C14.1386 7.32909 14.0544 5.86039 13.5441 4.51623C13.0337 3.17207 12.1219 2.01762 10.9325 1.20975C9.74315 0.401881 8.3339 -0.02024 6.89626 0.000746218ZM7.00331 4.84797C7.30638 4.84822 7.606 4.91232 7.88265 5.03608C8.1593 5.15985 8.40677 5.34051 8.60895 5.5663C8.65906 5.62233 8.69689 5.68824 8.72 5.75978C8.74311 5.83132 8.75099 5.9069 8.74312 5.98166C8.73526 6.05643 8.71183 6.12872 8.67435 6.19388C8.63686 6.25905 8.58615 6.31564 8.52547 6.36003C8.41346 6.43715 8.27708 6.47057 8.14211 6.45394C8.00714 6.43732 7.88294 6.37181 7.793 6.26982C7.65236 6.11822 7.47105 6.01031 7.27073 5.95897C7.07041 5.90764 6.85955 5.91505 6.66333 5.98033C6.4449 6.05637 6.25589 6.19913 6.12301 6.38843C5.99012 6.57773 5.92008 6.804 5.92278 7.03527C5.9209 7.78091 5.849 8.52472 5.70802 9.25692C5.68488 9.37903 5.62022 9.48938 5.52501 9.56926C5.42979 9.64914 5.30988 9.69363 5.1856 9.69518C5.15171 9.69535 5.11789 9.6922 5.08462 9.68576C4.94329 9.65361 4.81999 9.56782 4.74073 9.44648C4.66147 9.32514 4.63245 9.17775 4.65981 9.03542C4.78666 8.36517 4.85 7.68444 4.84899 7.00228C4.84899 6.43092 5.07596 5.88296 5.47997 5.47895C5.88399 5.07494 6.43195 4.84797 7.00331 4.84797Z" fill="#96EA63"/>
</svg>
