<svg width="16" height="12" viewBox="0 0 16 12" fill="none" xmlns="http://www.w3.org/2000/svg">
<path d="M3.74069 6.65725C3.7425 6.69338 3.73694 6.7295 3.72435 6.76341C3.71176 6.79732 3.6924 6.82832 3.66745 6.85451C3.6425 6.88071 3.61249 6.90155 3.57923 6.91578C3.54597 6.93001 3.51017 6.93733 3.47399 6.93728H0.532354C0.411965 6.93746 0.295055 6.89691 0.200635 6.82223C0.106215 6.74754 0.0398392 6.6431 0.0123003 6.52591C-0.00484752 6.44569 -0.00405701 6.36267 0.0146152 6.2828C0.0332875 6.20292 0.06938 6.12816 0.120311 6.06386C0.5909 5.43978 1.21529 4.9484 1.9325 4.63771C1.61762 4.35061 1.37611 3.99225 1.22821 3.59262C1.08031 3.193 1.03032 2.76375 1.08242 2.34084C1.13452 1.91792 1.28721 1.51364 1.52768 1.16187C1.76816 0.810095 2.08942 0.521063 2.46457 0.318981C2.83972 0.116899 3.25783 0.00765172 3.68389 0.000387612C4.10994 -0.0068765 4.53153 0.0880544 4.91335 0.27723C5.29517 0.466405 5.6261 0.744317 5.87843 1.08769C6.13076 1.43106 6.29714 1.8299 6.36363 2.25079C6.37221 2.30739 6.36207 2.36525 6.33475 2.41556C6.30743 2.46587 6.26443 2.50587 6.21228 2.52949C5.47246 2.87151 4.84591 3.41801 4.40656 4.1045C3.96721 4.791 3.73339 5.58884 3.73269 6.40389C3.73269 6.48923 3.73269 6.57324 3.74069 6.65725ZM15.8753 6.06319C15.4058 5.43984 14.7828 4.94873 14.0671 4.63771C14.382 4.35061 14.6235 3.99225 14.7714 3.59262C14.9193 3.193 14.9693 2.76375 14.9172 2.34084C14.8651 1.91792 14.7124 1.51364 14.4719 1.16187C14.2314 0.810095 13.9102 0.521063 13.535 0.318981C13.1599 0.116899 12.7418 0.00765172 12.3157 0.000387612C11.8897 -0.0068765 11.4681 0.0880544 11.0862 0.27723C10.7044 0.466405 10.3735 0.744317 10.1212 1.08769C9.86883 1.43106 9.70246 1.8299 9.63597 2.25079C9.62738 2.30739 9.63752 2.36525 9.66484 2.41556C9.69216 2.46587 9.73517 2.50587 9.78732 2.52949C10.5271 2.87151 11.1537 3.41801 11.593 4.1045C12.0324 4.791 12.2662 5.58884 12.2669 6.40389C12.2669 6.48923 12.2669 6.57324 12.2589 6.65725C12.2571 6.69338 12.2627 6.7295 12.2752 6.76341C12.2878 6.79732 12.3072 6.82832 12.3321 6.85451C12.3571 6.88071 12.3871 6.90155 12.4204 6.91578C12.4536 6.93001 12.4894 6.93733 12.5256 6.93728H15.4672C15.5876 6.93746 15.7045 6.89691 15.799 6.82223C15.8934 6.74754 15.9598 6.6431 15.9873 6.52591C16.0045 6.44554 16.0037 6.36235 15.985 6.28233C15.9662 6.20232 15.9298 6.12747 15.8786 6.06319H15.8753ZM9.94133 8.94216C10.4724 8.53543 10.8627 7.9725 11.0573 7.3325C11.252 6.69249 11.2412 6.00759 11.0264 5.37405C10.8117 4.7405 10.4038 4.19017 9.86019 3.8004C9.31653 3.41063 8.66441 3.20101 7.99546 3.20101C7.32652 3.20101 6.67439 3.41063 6.13073 3.8004C5.58708 4.19017 5.17922 4.7405 4.96449 5.37405C4.74976 6.00759 4.73895 6.69249 4.93359 7.3325C5.12822 7.9725 5.51851 8.53543 6.04959 8.94216C5.10719 9.35049 4.32026 10.0498 3.80403 10.9377C3.75721 11.0188 3.73256 11.1108 3.73257 11.2044C3.73257 11.2981 3.75723 11.39 3.80406 11.4711C3.85089 11.5522 3.91824 11.6196 3.99934 11.6664C4.08044 11.7132 4.17244 11.7378 4.26608 11.7378H11.7335C11.8272 11.7378 11.9192 11.7132 12.0003 11.6664C12.0814 11.6196 12.1487 11.5522 12.1955 11.4711C12.2424 11.39 12.267 11.2981 12.267 11.2044C12.267 11.1108 12.2424 11.0188 12.1956 10.9377C11.6782 10.0492 10.8898 9.34985 9.946 8.94216H9.94133Z" fill="#96EA63"/>
</svg>
