<svg width="22" height="23" viewBox="0 0 22 23" fill="none" xmlns="http://www.w3.org/2000/svg">
<g filter="url(#filter0_d_0_7)">
<path d="M15.004 5.80762H3.12417C2.80909 5.80762 2.50693 5.93278 2.28414 6.15557C2.06134 6.37836 1.93618 6.68053 1.93618 6.9956V11.1535C1.93618 15.068 3.83102 17.4402 5.42069 18.7411C7.13287 20.1414 8.83615 20.6173 8.9104 20.6366C9.01249 20.6644 9.12015 20.6644 9.22224 20.6366C9.29649 20.6173 10.9975 20.1414 12.7119 18.7411C14.2972 17.4402 16.192 15.068 16.192 11.1535V6.9956C16.192 6.68053 16.0668 6.37836 15.844 6.15557C15.6213 5.93278 15.3191 5.80762 15.004 5.80762ZM9.06409 19.4412C8.01362 19.0744 7.03557 18.5263 6.17432 17.8219C4.44803 16.4096 3.44864 14.569 3.19099 12.3415H9.06409V6.9956H15.004V11.1535C15.0042 11.5505 14.9819 11.9471 14.9372 12.3415H9.06409V19.4412Z" fill="#96EA63"/>
</g>
<defs>
<filter id="filter0_d_0_7" x="0.000301316" y="-2.69076e-05" width="21.9998" height="22.5934" filterUnits="userSpaceOnUse" color-interpolation-filters="sRGB">
<feFlood flood-opacity="0" result="BackgroundImageFix"/>
<feColorMatrix in="SourceAlpha" type="matrix" values="0 0 0 0 0 0 0 0 0 0 0 0 0 0 0 0 0 0 127 0" result="hardAlpha"/>
<feOffset dx="1.904" dy="-1.904"/>
<feGaussianBlur stdDeviation="1.904"/>
<feColorMatrix type="matrix" values="0 0 0 0 0.654902 0 0 0 0 0.941176 0 0 0 0 0.458824 0 0 0 0.2 0"/>
<feBlend mode="normal" in2="BackgroundImageFix" result="effect1_dropShadow_0_7"/>
<feBlend mode="normal" in="SourceGraphic" in2="effect1_dropShadow_0_7" result="shape"/>
</filter>
</defs>
</svg>
