<svg width="17" height="15" viewBox="0 0 17 15" fill="none" xmlns="http://www.w3.org/2000/svg">
<path d="M15.5959 0H1.29966C0.954966 0 0.624393 0.131696 0.38066 0.366116C0.136928 0.600537 0 0.918479 0 1.25V11.875C0 12.2065 0.136928 12.5245 0.38066 12.7589C0.624393 12.9933 0.954966 13.125 1.29966 13.125H2.59931V14.375C2.59931 14.5408 2.66778 14.6997 2.78964 14.8169C2.91151 14.9341 3.07679 15 3.24914 15C3.42148 15 3.58677 14.9341 3.70864 14.8169C3.8305 14.6997 3.89897 14.5408 3.89897 14.375V13.125H12.9966V14.375C12.9966 14.5408 13.065 14.6997 13.1869 14.8169C13.3088 14.9341 13.474 15 13.6464 15C13.8187 15 13.984 14.9341 14.1059 14.8169C14.2277 14.6997 14.2962 14.5408 14.2962 14.375V13.125H15.5959C15.9406 13.125 16.2711 12.9933 16.5149 12.7589C16.7586 12.5245 16.8955 12.2065 16.8955 11.875V1.25C16.8955 0.918479 16.7586 0.600537 16.5149 0.366116C16.2711 0.131696 15.9406 0 15.5959 0ZM14.946 7.5H12.5977C12.438 8.17418 12.0256 8.76812 11.4393 9.16839C10.8531 9.56865 10.1341 9.74717 9.41965 9.66986C8.70522 9.59254 8.04544 9.26481 7.56634 8.74926C7.08724 8.2337 6.82239 7.56647 6.82239 6.875C6.82239 6.18353 7.08724 5.51629 7.56634 5.00074C8.04544 4.48518 8.70522 4.15745 9.41965 4.08013C10.1341 4.00282 10.8531 4.18134 11.4393 4.58161C12.0256 4.98187 12.438 5.57582 12.5977 6.25H14.946C15.1184 6.25 15.2837 6.31584 15.4055 6.43305C15.5274 6.55026 15.5959 6.70924 15.5959 6.875C15.5959 7.04076 15.5274 7.19973 15.4055 7.31694C15.2837 7.43415 15.1184 7.5 14.946 7.5ZM11.372 6.875C11.372 7.18403 11.2767 7.48612 11.0982 7.74307C10.9197 8.00003 10.666 8.20029 10.3691 8.31856C10.0723 8.43682 9.74562 8.46776 9.43048 8.40747C9.11534 8.34718 8.82587 8.19837 8.59867 7.97985C8.37147 7.76133 8.21675 7.48292 8.15406 7.17982C8.09138 6.87673 8.12355 6.56256 8.24651 6.27705C8.36947 5.99154 8.5777 5.74752 8.84485 5.57583C9.11201 5.40414 9.42611 5.3125 9.74742 5.3125C9.96076 5.3125 10.172 5.35291 10.3691 5.43144C10.5662 5.50996 10.7453 5.62505 10.8962 5.77014C11.047 5.91523 11.1667 6.08748 11.2483 6.27705C11.33 6.46662 11.372 6.66981 11.372 6.875Z" fill="#96EA63"/>
</svg>
