<svg width="19" height="15" viewBox="0 0 19 15" fill="none" xmlns="http://www.w3.org/2000/svg">
<path d="M4.77478 4.85546L1.60137 7.49998L4.77478 10.1445C4.83966 10.1964 4.89353 10.2608 4.93324 10.3338C4.97295 10.4068 4.99769 10.487 5.00604 10.5697C5.01438 10.6524 5.00614 10.7359 4.98182 10.8153C4.95749 10.8948 4.91756 10.9686 4.86436 11.0325C4.81116 11.0963 4.74577 11.1489 4.672 11.1872C4.59823 11.2255 4.51756 11.2486 4.43473 11.2554C4.35189 11.2621 4.26855 11.2522 4.18958 11.2263C4.1106 11.2004 4.03758 11.1591 3.97479 11.1046L0.224811 7.97966C0.154446 7.92101 0.0978354 7.8476 0.0589863 7.76464C0.0201373 7.68168 0 7.59119 0 7.49959C0 7.40798 0.0201373 7.31749 0.0589863 7.23453C0.0978354 7.15157 0.154446 7.07817 0.224811 7.01951L3.97479 3.89453C4.10222 3.78844 4.26657 3.73732 4.43169 3.75241C4.5968 3.7675 4.74917 3.84757 4.85525 3.975C4.96134 4.10242 5.01246 4.26678 4.99737 4.43189C4.98228 4.59701 4.90221 4.74937 4.77478 4.85546ZM18.5247 7.01951L14.7747 3.89453C14.7116 3.842 14.6388 3.80241 14.5604 3.77803C14.482 3.75365 14.3996 3.74494 14.3178 3.75241C14.2361 3.75989 14.1566 3.78339 14.0839 3.82158C14.0112 3.85977 13.9468 3.9119 13.8943 3.975C13.7882 4.10242 13.7371 4.26678 13.7521 4.43189C13.7672 4.59701 13.8473 4.74937 13.9747 4.85546L17.1481 7.49998L13.9747 10.1445C13.9099 10.1964 13.856 10.2608 13.8163 10.3338C13.7766 10.4068 13.7518 10.487 13.7435 10.5697C13.7351 10.6524 13.7434 10.7359 13.7677 10.8153C13.792 10.8948 13.832 10.9686 13.8852 11.0325C13.9383 11.0963 14.0037 11.1489 14.0775 11.1872C14.1513 11.2255 14.232 11.2486 14.3148 11.2554C14.3976 11.2621 14.481 11.2522 14.5599 11.2263C14.6389 11.2004 14.7119 11.1591 14.7747 11.1046L18.5247 7.97966C18.5951 7.92101 18.6517 7.8476 18.6905 7.76464C18.7294 7.68168 18.7495 7.59119 18.7495 7.49959C18.7495 7.40798 18.7294 7.31749 18.6905 7.23453C18.6517 7.15157 18.5951 7.07817 18.5247 7.01951ZM12.088 0.0375204C12.0109 0.00950992 11.929 -0.00302978 11.847 0.000617337C11.765 0.00426445 11.6845 0.0240271 11.6101 0.0587765C11.5358 0.093526 11.469 0.142582 11.4136 0.203143C11.3582 0.263704 11.3153 0.334585 11.2872 0.411737L6.28728 14.1617C6.25915 14.2389 6.24651 14.3208 6.2501 14.4029C6.25369 14.485 6.27342 14.5656 6.30818 14.64C6.34294 14.7145 6.39203 14.7813 6.45266 14.8368C6.51328 14.8923 6.58425 14.9352 6.66149 14.9632C6.72996 14.9875 6.8021 15 6.87477 14.9999C7.00312 14.9999 7.12836 14.9604 7.23347 14.8868C7.33858 14.8131 7.41847 14.7089 7.46227 14.5882L12.4622 0.838297C12.4903 0.761146 12.5028 0.679233 12.4991 0.597236C12.4955 0.515239 12.4757 0.434763 12.441 0.360403C12.4062 0.286044 12.3572 0.219257 12.2966 0.163856C12.2361 0.108456 12.1652 0.065527 12.088 0.0375204Z" fill="#5A8C3B"/>
</svg>
