<svg width="6" height="10" viewBox="0 0 6 10" fill="none" xmlns="http://www.w3.org/2000/svg">
<path d="M5.32157 5.32157L0.77635 9.8668C0.73412 9.90903 0.683986 9.94253 0.62881 9.96538C0.573634 9.98824 0.514497 10 0.454775 10C0.395053 10 0.335916 9.98824 0.28074 9.96538C0.225564 9.94253 0.17543 9.90903 0.1332 9.8668C0.0909705 9.82457 0.0574721 9.77443 0.0346175 9.71926C0.0117629 9.66408 0 9.60495 0 9.54522C0 9.4855 0.0117629 9.42636 0.0346175 9.37119C0.0574721 9.31601 0.0909705 9.26588 0.1332 9.22365L4.35742 5L0.1332 0.77635C0.0479134 0.691063 -8.98643e-10 0.575389 0 0.454775C8.98644e-10 0.334161 0.0479134 0.218487 0.1332 0.133201C0.218487 0.0479136 0.334161 8.98644e-10 0.454775 0C0.575389 -8.98644e-10 0.691063 0.0479136 0.77635 0.133201L5.32157 4.67842C5.36383 4.72064 5.39736 4.77077 5.42023 4.82594C5.44311 4.88112 5.45488 4.94027 5.45488 5C5.45488 5.05973 5.44311 5.11888 5.42023 5.17405C5.39736 5.22923 5.36383 5.27936 5.32157 5.32157Z" fill="#1E2F14"/>
</svg>
