<svg width="20" height="13" viewBox="0 0 20 13" fill="none" xmlns="http://www.w3.org/2000/svg">
<path d="M9.14817 8.73973C10.0005 8.17231 10.6476 7.34566 10.9938 6.38203C11.3399 5.4184 11.3668 4.36895 11.0704 3.38887C10.774 2.40878 10.17 1.5501 9.34788 0.939808C8.52572 0.329512 7.52898 0 6.50506 0C5.48113 0 4.48439 0.329512 3.66223 0.939808C2.84007 1.5501 2.23613 2.40878 1.93973 3.38887C1.64332 4.36895 1.67019 5.4184 2.01636 6.38203C2.36253 7.34566 3.00962 8.17231 3.86194 8.73973C2.32018 9.30797 1.00348 10.3595 0.10831 11.7374C0.0612635 11.8073 0.0285847 11.8859 0.0121734 11.9686C-0.0042378 12.0512 -0.00405406 12.1363 0.012714 12.2189C0.029482 12.3015 0.0624999 12.3799 0.109848 12.4497C0.157197 12.5194 0.217931 12.579 0.288522 12.625C0.359112 12.6711 0.43815 12.7026 0.521041 12.7179C0.603932 12.7331 0.689024 12.7317 0.771368 12.7137C0.853713 12.6958 0.93167 12.6617 1.00071 12.6133C1.06974 12.565 1.12848 12.5034 1.17351 12.4321C1.75093 11.544 2.54106 10.8143 3.47214 10.309C4.40321 9.80384 5.44575 9.53922 6.50506 9.53922C7.56437 9.53922 8.6069 9.80384 9.53798 10.309C10.4691 10.8143 11.2592 11.544 11.8366 12.4321C11.9299 12.5708 12.074 12.6671 12.2377 12.7004C12.4015 12.7336 12.5717 12.7011 12.7117 12.6098C12.8516 12.5185 12.95 12.3758 12.9856 12.2126C13.0212 12.0493 12.9911 11.8786 12.9018 11.7374C12.0066 10.3595 10.6899 9.30797 9.14817 8.73973ZM3.00739 4.77147C3.00739 4.0797 3.21253 3.40346 3.59686 2.82828C3.98118 2.25309 4.52744 1.80479 5.16656 1.54006C5.80567 1.27533 6.50894 1.20606 7.18742 1.34102C7.8659 1.47598 8.48912 1.8091 8.97828 2.29825C9.46743 2.78741 9.80055 3.41063 9.93551 4.08911C10.0705 4.76759 10.0012 5.47086 9.73647 6.10997C9.47174 6.74908 9.02344 7.29534 8.44825 7.67967C7.87307 8.064 7.19683 8.26913 6.50506 8.26913C5.57774 8.26808 4.68871 7.89924 4.033 7.24353C3.37729 6.58782 3.00845 5.69879 3.00739 4.77147ZM19.7119 12.6174C19.5706 12.7095 19.3986 12.7417 19.2336 12.707C19.0685 12.6722 18.9241 12.5734 18.8319 12.4321C18.2552 11.5435 17.4652 10.8134 16.5339 10.3084C15.6026 9.80341 14.5598 9.53959 13.5004 9.54101C13.3317 9.54101 13.17 9.47401 13.0507 9.35475C12.9314 9.23549 12.8644 9.07373 12.8644 8.90507C12.8644 8.73641 12.9314 8.57466 13.0507 8.4554C13.17 8.33613 13.3317 8.26913 13.5004 8.26913C14.0155 8.26865 14.5241 8.1544 14.9899 7.93456C15.4557 7.71472 15.8672 7.39471 16.195 6.9974C16.5228 6.60008 16.7588 6.13527 16.8862 5.63617C17.0135 5.13707 17.029 4.61601 16.9317 4.11022C16.8343 3.60442 16.6264 3.12637 16.3228 2.71023C16.0193 2.2941 15.6276 1.95014 15.1757 1.70294C14.7238 1.45574 14.2229 1.31139 13.7087 1.28022C13.1946 1.24905 12.6799 1.33182 12.2015 1.52262C12.1235 1.55635 12.0395 1.57409 11.9545 1.57481C11.8695 1.57553 11.7853 1.5592 11.7067 1.5268C11.6281 1.49441 11.5568 1.44659 11.4971 1.38617C11.4373 1.32576 11.3902 1.25398 11.3587 1.17507C11.3271 1.09617 11.3117 1.01173 11.3133 0.926763C11.3149 0.841793 11.3336 0.75801 11.3681 0.680364C11.4027 0.602718 11.4524 0.532784 11.5145 0.474696C11.5765 0.416607 11.6495 0.371542 11.7293 0.342162C12.8243 -0.0945279 14.0422 -0.110243 15.148 0.298049C16.2539 0.706341 17.1694 1.50971 17.7179 2.55317C18.2664 3.59664 18.4091 4.80626 18.1183 5.94869C17.8276 7.09112 17.1241 8.0854 16.1435 8.73973C17.6853 9.30797 19.002 10.3595 19.8971 11.7374C19.9892 11.8786 20.0215 12.0507 19.9867 12.2157C19.952 12.3808 19.8531 12.5252 19.7119 12.6174Z" fill="#4D4F5C"/>
</svg>
