<svg width="16" height="16" viewBox="0 0 16 16" fill="none" xmlns="http://www.w3.org/2000/svg">
<path d="M16 0.727273V5.09091C16 5.28379 15.9234 5.46878 15.787 5.60517C15.6506 5.74156 15.4656 5.81818 15.2727 5.81818C15.0798 5.81818 14.8949 5.74156 14.7585 5.60517C14.6221 5.46878 14.5455 5.28379 14.5455 5.09091V2.48273L9.96909 7.06C9.83263 7.19647 9.64754 7.27313 9.45455 7.27313C9.26155 7.27313 9.07647 7.19647 8.94 7.06C8.80353 6.92353 8.72687 6.73845 8.72687 6.54545C8.72687 6.35246 8.80353 6.16737 8.94 6.03091L13.5173 1.45455H10.9091C10.7162 1.45455 10.5312 1.37792 10.3948 1.24153C10.2584 1.10514 10.1818 0.920157 10.1818 0.727273C10.1818 0.534388 10.2584 0.349403 10.3948 0.213013C10.5312 0.0766233 10.7162 0 10.9091 0H15.2727C15.4656 0 15.6506 0.0766233 15.787 0.213013C15.9234 0.349403 16 0.534388 16 0.727273ZM6.03091 8.94L1.45455 13.5173V10.9091C1.45455 10.7162 1.37792 10.5312 1.24153 10.3948C1.10514 10.2584 0.920157 10.1818 0.727273 10.1818C0.534388 10.1818 0.349403 10.2584 0.213013 10.3948C0.0766233 10.5312 0 10.7162 0 10.9091V15.2727C0 15.4656 0.0766233 15.6506 0.213013 15.787C0.349403 15.9234 0.534388 16 0.727273 16H5.09091C5.28379 16 5.46878 15.9234 5.60517 15.787C5.74156 15.6506 5.81818 15.4656 5.81818 15.2727C5.81818 15.0798 5.74156 14.8949 5.60517 14.7585C5.46878 14.6221 5.28379 14.5455 5.09091 14.5455H2.48273L7.06 9.96909C7.19647 9.83263 7.27313 9.64754 7.27313 9.45455C7.27313 9.26155 7.19647 9.07647 7.06 8.94C6.92353 8.80353 6.73845 8.72687 6.54545 8.72687C6.35246 8.72687 6.16737 8.80353 6.03091 8.94Z" fill="#4D4F5C"/>
</svg>
