<svg width="16" height="18" viewBox="0 0 16 18" fill="none" xmlns="http://www.w3.org/2000/svg">
<path d="M15.3599 3.85552L8.59071 0.151702C8.40971 0.0521817 8.2065 0 7.99994 0C7.79339 0 7.59018 0.0521817 7.40918 0.151702L0.639995 3.85783C0.44668 3.9636 0.285308 4.11934 0.172731 4.30877C0.0601536 4.4982 0.000500195 4.71438 0 4.93474V12.2916C0.000500195 12.512 0.0601536 12.7282 0.172731 12.9176C0.285308 13.107 0.44668 13.2628 0.639995 13.3685L7.40918 17.0739C7.59004 17.1738 7.7933 17.2262 7.99994 17.2262C8.20658 17.2262 8.40984 17.1738 8.59071 17.0739L15.3599 13.3685C15.5532 13.2628 15.7146 13.107 15.8272 12.9176C15.9397 12.7282 15.9994 12.512 15.9999 12.2916V4.93474C15.9998 4.71399 15.9403 4.49733 15.8277 4.30745C15.7151 4.11758 15.5535 3.96148 15.3599 3.85552ZM11.0768 10.4593V14.3124L8.61532 15.6601V8.97779L14.7691 5.60859V8.07011L11.3968 9.91625C11.2995 9.96951 11.2184 10.0481 11.162 10.1437C11.1057 10.2393 11.0763 10.3484 11.0768 10.4593ZM4.60304 9.92086L1.23076 8.07472V5.6132L7.38456 8.98241V15.6647L4.92304 14.3124V10.4593C4.92279 10.3491 4.89296 10.241 4.83668 10.1463C4.78039 10.0516 4.6997 9.97375 4.60304 9.92086ZM4.5492 3.12014L7.70302 4.84705C7.79359 4.89661 7.89517 4.92258 7.9984 4.92258C8.10164 4.92258 8.20322 4.89661 8.29379 4.84705L11.4476 3.12014L14.0999 4.57167L7.99994 7.91165L1.89691 4.57013L4.5492 3.12014ZM7.99994 1.22862L10.1692 2.4163L7.99994 3.60475L5.83073 2.41707L7.99994 1.22862ZM1.23076 9.47625L3.69228 10.8239V13.6385L1.23076 12.2916V9.47625ZM12.3076 13.6385V10.8239L14.7691 9.47625V12.2916L12.3076 13.6385Z" fill="#5A8C3B"/>
</svg>
