<svg width="16" height="16" viewBox="0 0 16 16" fill="none" xmlns="http://www.w3.org/2000/svg">
<path d="M15.9867 1.21176C15.9678 0.899709 15.8352 0.60539 15.6142 0.38433C15.3931 0.163271 15.0988 0.0307586 14.7868 0.0117952C13.7804 -0.048203 11.2085 0.0437941 9.07414 2.17733L8.69415 2.56212H4.02789C3.85916 2.56117 3.69192 2.59378 3.53591 2.65805C3.37989 2.72232 3.23821 2.81698 3.11912 2.93651L0.3752 5.68202C0.206923 5.85018 0.0888424 6.06192 0.0342092 6.29346C-0.020424 6.525 -0.00944744 6.76718 0.0659072 6.99283C0.141262 7.21848 0.278012 7.41866 0.460811 7.57091C0.64361 7.72316 0.865222 7.82145 1.10078 7.85476L4.17828 8.28434L7.71498 11.821L8.14456 14.9001C8.1776 15.1357 8.27587 15.3573 8.42826 15.54C8.58065 15.7226 8.7811 15.859 9.00694 15.9337C9.13848 15.9777 9.27624 16.0001 9.41492 16.0001C9.58285 16.0004 9.74918 15.9675 9.90432 15.9032C10.0595 15.839 10.2004 15.7447 10.3189 15.6257L13.0644 12.8818C13.1839 12.7627 13.2786 12.621 13.3429 12.465C13.4071 12.309 13.4398 12.1418 13.4388 11.973V7.30677L13.8204 6.92518C15.9547 4.79085 16.0467 2.21893 15.9867 1.21176ZM4.02789 3.84208H7.41419L4.25188 7.00358L1.27917 6.58919L4.02789 3.84208ZM9.98051 3.0861C10.5955 2.46735 11.3354 1.98694 12.1508 1.67696C12.9663 1.36698 13.8385 1.23456 14.7092 1.28856C14.7652 2.15971 14.6342 3.03278 14.3248 3.84909C14.0155 4.6654 13.535 5.40603 12.9156 6.02121L8.31896 10.6163L5.38465 7.68196L9.98051 3.0861ZM12.1588 11.973L9.41253 14.7217L8.99734 11.7482L12.1588 8.58673V11.973ZM6.22622 12.733C5.86623 13.5218 4.66227 15.3617 1.27917 15.3617C1.10944 15.3617 0.946658 15.2943 0.826638 15.1743C0.706618 15.0543 0.639192 14.8915 0.639192 14.7217C0.639192 11.3387 2.47914 10.1347 3.26791 9.7739C3.34439 9.73902 3.42699 9.71955 3.511 9.71659C3.595 9.71364 3.67877 9.72725 3.75751 9.75667C3.83625 9.78609 3.90843 9.83073 3.96992 9.88804C4.03141 9.94535 4.08101 10.0142 4.11589 10.0907C4.15076 10.1672 4.17024 10.2498 4.17319 10.3338C4.17615 10.4178 4.16253 10.5015 4.13311 10.5803C4.1037 10.659 4.05906 10.7312 4.00175 10.7927C3.94444 10.8542 3.87558 10.9038 3.7991 10.9387C3.28471 11.1731 2.14955 11.9274 1.94955 14.0514C4.07349 13.8514 4.82946 12.7162 5.06226 12.2018C5.09714 12.1253 5.14674 12.0565 5.20823 11.9992C5.26972 11.9419 5.34189 11.8972 5.42064 11.8678C5.49938 11.8384 5.58314 11.8248 5.66715 11.8277C5.75115 11.8307 5.83375 11.8502 5.91023 11.885C5.98671 11.9199 6.05557 11.9695 6.11288 12.031C6.17019 12.0925 6.21483 12.1647 6.24425 12.2434C6.27366 12.3222 6.28728 12.4059 6.28433 12.4899C6.28137 12.5739 6.2619 12.6565 6.22702 12.733H6.22622Z" fill="#5A8C3B"/>
</svg>
