<svg width="44" height="44" viewBox="0 0 44 44" fill="none" xmlns="http://www.w3.org/2000/svg">
<mask id="mask0_0_218" style="mask-type:alpha" maskUnits="userSpaceOnUse" x="0" y="0" width="44" height="44">
<circle cx="22" cy="22" r="22" fill="#C4C4C4"/>
</mask>
<g mask="url(#mask0_0_218)">
</g>
<path d="M41.6234 21.7156C41.6234 32.7936 32.6426 41.7744 21.5645 41.7744C10.4864 41.7744 1.50568 32.7936 1.50568 21.7156C1.50568 10.6374 10.4864 1.65674 21.5645 1.65674C32.6426 1.65674 41.6234 10.6374 41.6234 21.7156Z" fill="#FCD535"/>
<path d="M16.3881 19.5131L21.5649 14.3367L26.7435 19.5152L29.7558 16.5034L21.5649 8.3126L13.3763 16.5008L16.3881 19.5125V19.5131ZM8.23732 21.6403L11.2496 18.6276L14.2613 21.6403L11.2491 24.651L8.23732 21.6403ZM16.3881 23.767L21.5649 28.943L26.7435 23.7644L29.7574 26.7746L21.5649 34.968L13.3763 26.7787L13.3722 26.774L16.3881 23.7665V23.767ZM28.8676 21.6403L31.8794 18.6286L34.8927 21.6403L31.881 24.6521L28.8676 21.6403Z" fill="black"/>
<path d="M24.6191 21.6403L21.5652 18.5816L19.3057 20.8401L19.0454 21.1003L18.5107 21.6351L18.5066 21.6392L18.5107 21.6434L21.5652 24.6972L24.6211 21.6413H24.6186" fill="black"/>
</svg>
